<?xml version="1.0" encoding="utf-8"?>
<!-- Generator: Adobe Illustrator 27.5.0, SVG Export Plug-In . SVG Version: 6.00 Build 0)  -->
<svg version="1.1" xmlns="http://www.w3.org/2000/svg" xmlns:xlink="http://www.w3.org/1999/xlink" x="0px" y="0px"
	 viewBox="0 0 2475 1650" style="enable-background:new 0 0 2475 1650;" xml:space="preserve">
<g id="Background">
	<rect style="fill:#FFFFFF;" width="2475" height="1650"/>
</g>
<g id="Illustration">
	<g>
		
			<linearGradient id="SVGID_1_" gradientUnits="userSpaceOnUse" x1="-1605.1554" y1="796.2319" x2="579.3373" y2="796.2319" gradientTransform="matrix(-1 0 0 1 774 0)">
			<stop  offset="0" style="stop-color:#DAE3FE"/>
			<stop  offset="1" style="stop-color:#E9EFFD"/>
		</linearGradient>
		<path style="fill:url(#SVGID_1_);" d="M1305.829,1384.548c0,0,741.729,7.358,948.333-158.14
			c206.604-165.498,128.837-330.489-29.358-377.228c-158.196-46.74-185.178-95.346-100.057-160.912
			c85.122-65.566,193.23-200.153,13.728-335.404c-179.502-135.251-384.322,59.016-544.755,33.219
			c-160.433-25.797-96.892-112.678-307.874-52.677c-210.982,60.001-164.464-114.696-334.078-130.53
			c-169.616-15.835-152.23,181.705-326.693,107.138c-174.464-74.566-317.164-64.276-392.17,54.143
			c-75.006,118.42-42.424,277.915,122.127,372.968c164.55,95.054,146.888,88.572,85.391,181.975
			c-61.496,93.403-116.642,400.56,163.32,444.43C883.705,1407.4,1305.829,1384.548,1305.829,1384.548z"/>
		<path style="fill:#91B3FA;" d="M2139.719,958.433c0,0,105.706-185.483,72.913-213.11c-32.792-27.627-33.376,52.616-46.648,41.25
			c-13.272-11.366,8.373-78.371,2.477-124.928c-5.897-46.558-18.701-108.843-35.238-46.254
			c-16.537,62.59-14.472,124.3-21.635,92.414c-7.163-31.886-31.865-198.097-63.635-148.5
			c-31.77,49.597-38.437,114.164-6.413,151.784c32.024,37.62,75.014,79.627,22.159,51.896c-52.855-27.731-88.881-15.36-32.346,34.88
			c0,0,85.014,70.356,48.106,67.059c-36.908-3.297-95.667,35.656-35.112,63.805C2044.348,928.729,2130.376,941.225,2139.719,958.433
			z"/>
		<path style="fill:#BDD0FB;" d="M2095.801,1127.591c0,0-206.029-9.775-196.911-57.479c9.118-47.704,76.361-15.761,106.282-12.732
			c29.921,3.029,12.366-17.426-48.581-60.33c-60.947-42.904-94.453-105.741-29.919-76.44c64.533,29.3,90.324,84.322,85.955,45.513
			c-4.37-38.809-87.322-148.065-17.16-103.329c70.162,44.736,65.364,86.133,67.48,118.795c2.116,32.661,11.463-63.209,33.399-48.927
			c21.937,14.282,9.484,28.955,1.63,66.918c-7.854,37.963,14.132,7.363,21.398-5.099s25.118,17.426,7.63,58.66
			C2109.517,1094.374,2095.801,1127.591,2095.801,1127.591z"/>
		<path style="fill:#7D97F4;" d="M2136.835,1344.78c-0.138,0.117-0.229,0.264-0.266,0.412c-0.017,0.01-0.025,0.291-0.013,0.075
			l0.028-0.585l0.115-2.342l0.193-4.786l0.32-9.673l0.496-19.42l0.673-38.897c0.33-25.941,0.446-51.892,0.363-77.841
			c-0.152-51.899-1.091-103.797-3.069-155.64c-1.026-25.92-2.339-51.822-3.97-77.699c-1.717-25.868-3.802-51.703-6.443-77.467
			c-2.662-25.758-6.017-51.433-10.479-76.86c-4.563-25.362-10.076-50.702-19.188-74.437l-0.048-0.126
			c-0.896-2.333,0.27-4.951,2.603-5.847c2.312-0.888,4.906,0.253,5.824,2.546c9.873,24.716,15.763,50.364,20.758,76.029
			c4.873,25.703,8.606,51.556,11.643,77.458c3.013,25.905,5.465,51.856,7.544,77.826c1.994,25.974,3.667,51.966,5.053,77.968
			c2.696,52.007,4.348,104.047,5.211,156.097c0.439,26.025,0.677,52.053,0.702,78.088l-0.143,39.065l-0.232,19.556l-0.191,9.811
			l-0.132,4.955l-0.09,2.527l-0.022,0.632c-0.003,0.19-0.058,0.875-0.105,1.29c-0.104,0.957-0.262,1.914-0.468,2.84
			c-1.534,4.602-6.509,7.09-11.111,5.556C2137.788,1354.358,2135.301,1349.383,2136.835,1344.78z"/>
		<path style="fill:#7D97F4;" d="M2135.696,1354.776c-0.076,0.233-0.111,0.481-0.102,0.721c-0.006,0.064,0.041,0.364,0.023,0.225
			l-0.053-0.367l-0.211-1.469l-0.459-3.024l-0.973-6.13l-2.037-12.307l-4.263-24.627c-2.91-16.414-5.943-32.813-9.086-49.189
			c-6.279-32.755-13.004-65.424-20.302-97.951c-7.343-32.512-15.24-64.898-24.376-96.881c-4.579-15.984-9.524-31.85-15.072-47.449
			c-5.596-15.547-11.724-30.992-19.712-45.058l-0.064-0.113c-1.234-2.173-0.472-4.936,1.701-6.169
			c2.144-1.218,4.864-0.488,6.122,1.618c8.845,14.842,15.385,30.478,21.444,46.217c5.988,15.766,11.329,31.716,16.297,47.757
			c9.908,32.091,18.54,64.496,26.615,97.018c8.03,32.532,15.477,65.19,22.48,97.942c3.506,16.375,6.9,32.774,10.174,49.202
			l4.813,24.674l2.319,12.376l1.124,6.226l0.548,3.16l0.269,1.627l0.067,0.407l0.119,1.002c0.07,0.758,0.097,1.525,0.082,2.277
			c-0.473,4.829-4.772,8.359-9.6,7.886C2138.753,1363.903,2135.222,1359.604,2135.696,1354.776z"/>
		<path style="fill:#91B3FA;" d="M2179.862,995.881c0,0,208.866-33.286,188.94-77.577c-19.927-44.291-77.935,2.367-106.339,12.249
			c-28.404,9.882-32.483,4.953,16.859-50.909c49.342-55.862,53.947-113.822-2.037-70.362c-55.985,43.46-36.607,83.769-41.351,45.004
			c-4.745-38.765,70.087-186.774,12.205-126.994c-57.882,59.78-64.956,110.662-59.445,142.925
			c5.511,32.262-25.802-58.831-43.831-39.853c-18.029,18.978-2.514,30.364,13.925,65.474c16.439,35.109-12.041,10.438-21.998,0
			c-9.957-10.438-20.395,22.773,6.175,58.831C2169.534,990.726,2179.862,995.881,2179.862,995.881z"/>
		<path style="fill:#7D97F4;" d="M2164.123,1350.336c-0.197-0.825-0.347-1.679-0.442-2.534c-0.043-0.364-0.092-0.998-0.094-1.137
			l-0.016-0.478l-0.064-1.913l-0.091-3.726l-0.126-7.354l-0.14-14.641l-0.04-29.233c0.063-19.48,0.286-38.953,0.659-58.424
			c0.736-38.941,2.061-77.874,4.168-116.783c2.165-38.906,5.072-77.799,9.695-116.579c2.317-19.387,5.157-38.742,8.853-57.997
			c3.789-19.23,8.242-38.448,15.72-57.054c0.932-2.319,3.567-3.443,5.886-2.511c2.292,0.921,3.418,3.507,2.543,5.806l-0.05,0.131
			c-6.718,17.625-10.793,36.535-14.15,55.462c-3.285,18.98-5.745,38.156-7.689,57.399c-3.879,38.496-6.065,77.211-7.511,115.95
			c-1.389,38.747-2.001,77.537-2.025,116.327c-0.017,19.394,0.115,38.79,0.406,58.177l0.571,29.065l0.404,14.505l0.255,7.216
			l0.152,3.557l0.089,1.728l0.022,0.432c0.01,0.164-0.003-0.167-0.025-0.228c-0.045-0.25-0.145-0.499-0.291-0.718
			c1.534,4.603-0.953,9.578-5.556,11.112C2170.632,1357.426,2165.657,1354.938,2164.123,1350.336z"/>
		<g>
			
				<linearGradient id="SVGID_00000071543232775835971910000004958819678661193140_" gradientUnits="userSpaceOnUse" x1="2088.0505" y1="1627.6168" x2="2144.5242" y2="1351.5234">
				<stop  offset="0" style="stop-color:#4042E2"/>
				<stop  offset="1" style="stop-color:#4F52FF"/>
			</linearGradient>
			<path style="fill:url(#SVGID_00000071543232775835971910000004958819678661193140_);" d="M2064.134,1310.068h172.945
				c11.336,0,19.722,10.545,17.173,21.591c-11.065,47.939-24.327,96.579-51.46,145.952c-5.012,9.12-14.555,14.838-24.96,14.838
				h-56.434c-10.248,0-19.652-5.631-24.509-14.655c-21.739-40.396-42.653-88.552-52.979-143.205
				C2041.506,1321.867,2051.189,1310.068,2064.134,1310.068z"/>
		</g>
		<path style="fill:#91B3FA;" d="M418.976,960.492c0,0,118.748-177.416,88.024-207.326c-30.724-29.91-37.067,50.085-49.489,37.796
			c-12.422-12.289,13.977-77.567,11.438-124.428c-2.539-46.861-10.84-109.905-31.827-48.664
			c-20.987,61.241-23.358,122.94-28.214,90.622c-4.856-32.318-17.563-199.873-52.811-152.685
			c-35.249,47.189-46.533,111.111-17.292,150.932c29.241,39.821,69.105,84.806,18.377,53.352
			c-50.728-31.454-87.549-21.701-34.766,32.468c0,0,79.744,76.277,43.168,70.339c-36.575-5.938-97.98,28.697-39.601,61.12
			C325.983,924.018,410.893,942.658,418.976,960.492z"/>
		<path style="fill:#7D97F4;" d="M388.365,1345.635c-0.146,0.107-0.247,0.247-0.295,0.392c-0.018,0.009-0.046,0.288-0.018,0.074
			l0.07-0.582l0.283-2.327l0.536-4.759l1.013-9.625l1.889-19.335l3.464-38.748c2.191-25.85,4.17-51.726,5.95-77.614
			c3.574-51.776,6.363-103.607,8.112-155.459c0.837-25.926,1.387-51.856,1.618-77.783c0.144-25.924-0.081-51.843-0.866-77.73
			c-0.806-25.883-2.309-51.732-4.934-77.414c-2.73-25.624-6.41-51.294-13.795-75.623l-0.038-0.129
			c-0.726-2.391,0.624-4.919,3.016-5.645c2.37-0.72,4.876,0.604,5.626,2.958c8.073,25.361,12.108,51.366,15.246,77.323
			c3.015,25.987,4.883,52.041,6.052,78.094c1.146,26.055,1.728,52.115,1.938,78.167c0.125,26.05-0.073,52.095-0.557,78.13
			c-1.045,52.066-3.133,104.09-6.008,156.068c-1.431,25.99-3.061,51.968-4.906,77.937l-2.947,38.954l-1.635,19.489l-0.894,9.772
			l-0.488,4.932l-0.271,2.514l-0.068,0.628c-0.017,0.19-0.121,0.869-0.198,1.279c-0.172,0.948-0.399,1.89-0.671,2.799
			c-1.86,4.481-7.001,6.604-11.481,4.744C388.628,1355.257,386.504,1350.116,388.365,1345.635z"/>
		<path style="fill:#91B3FA;" d="M468.154,1127.591c0,0,206.029-9.775,196.911-57.479c-9.118-47.704-76.361-15.761-106.282-12.732
			c-29.921,3.029-12.366-17.426,48.581-60.33c60.947-42.904,94.453-105.741,29.919-76.44c-64.533,29.3-90.324,84.322-85.955,45.513
			c4.37-38.809,87.322-148.065,17.16-103.329c-70.162,44.736-65.364,86.133-67.48,118.795c-2.116,32.661-11.463-63.209-33.4-48.927
			c-21.936,14.282-9.484,28.955-1.63,66.918c7.854,37.963-14.132,7.363-21.398-5.099s-25.117,17.426-7.63,58.66
			C454.438,1094.374,468.154,1127.591,468.154,1127.591z"/>
		<path style="fill:#7D97F4;" d="M428.259,1354.776c0.077,0.233,0.111,0.481,0.102,0.721c0.005,0.064-0.041,0.364-0.023,0.225
			l0.053-0.367l0.211-1.469l0.459-3.024l0.973-6.13l2.037-12.307l4.263-24.627c2.91-16.414,5.943-32.813,9.086-49.189
			c6.279-32.755,13.004-65.424,20.303-97.951c7.343-32.512,15.24-64.898,24.376-96.881c4.579-15.984,9.524-31.85,15.073-47.449
			c5.596-15.547,11.724-30.992,19.712-45.058l0.064-0.113c1.234-2.173,0.473-4.936-1.701-6.169
			c-2.144-1.218-4.864-0.488-6.122,1.618c-8.845,14.842-15.385,30.478-21.444,46.217c-5.987,15.766-11.329,31.716-16.297,47.757
			c-9.908,32.091-18.54,64.496-26.615,97.018c-8.03,32.532-15.477,65.19-22.48,97.942c-3.506,16.375-6.9,32.774-10.174,49.202
			l-4.813,24.674l-2.319,12.376l-1.124,6.226l-0.548,3.16l-0.269,1.627l-0.067,0.407l-0.119,1.002
			c-0.07,0.758-0.097,1.525-0.081,2.277c0.473,4.829,4.772,8.359,9.6,7.886C425.202,1363.903,428.733,1359.604,428.259,1354.776z"/>
		<path style="fill:#BDD0FB;" d="M345.534,1042.552c0,0-211.218-10.958-196.099-57.112c15.119-46.154,77.747-5.907,107.038,0.908
			c29.291,6.815,32.825,1.482-22.161-48.835c-54.986-50.317-65.709-107.462-5.433-70.181c60.276,37.281,45.28,79.417,45.889,40.367
			c0.608-39.049-89.491-178.292-25.598-124.984c63.893,53.307,76.321,103.153,74.26,135.818
			c-2.061,32.665,19.42-61.235,39.359-44.275c19.939,16.96,5.719,29.927-6.906,66.581c-12.625,36.654,13.08,9.103,21.874-2.332
			c8.794-11.435,22.694,20.483,0.096,59.154C355.257,1036.331,345.534,1042.552,345.534,1042.552z"/>
		<path style="fill:#7D97F4;" d="M398.758,1393.342c0.108-0.841,0.167-1.706,0.171-2.567c0.005-0.366-0.014-1.002-0.027-1.14
			l-0.035-0.477l-0.139-1.909l-0.304-3.715l-0.654-7.326l-1.413-14.573l-3.059-29.073c-2.128-19.364-4.414-38.703-6.848-58.025
			c-4.86-38.643-10.304-77.216-16.524-115.684c-6.277-38.457-13.29-76.823-21.998-114.894c-4.36-19.032-9.235-37.977-14.951-56.732
			c-5.807-18.72-12.271-37.357-21.68-55.066c-1.172-2.207-3.912-3.046-6.119-1.873c-2.182,1.159-3.027,3.849-1.913,6.043
			l0.064,0.125c8.548,16.814,14.605,35.186,19.949,53.65c5.279,18.525,9.758,37.332,13.73,56.261
			c7.938,37.868,14.216,76.133,19.76,114.501c5.489,38.382,10.209,76.888,14.345,115.457c2.072,19.283,3.997,38.584,5.763,57.892
			l2.513,28.962l1.136,14.466l0.511,7.202l0.226,3.553l0.094,1.728l0.024,0.432c0.008,0.165-0.014-0.167,0.001-0.23
			c0.018-0.253,0.091-0.512,0.213-0.745c-1.038,4.74,1.963,9.423,6.703,10.46C393.037,1401.082,397.72,1398.081,398.758,1393.342z"
			/>
		<g>
			
				<linearGradient id="SVGID_00000025423428766666934330000017407404396327068303_" gradientUnits="userSpaceOnUse" x1="349.8586" y1="1627.6168" x2="406.3321" y2="1351.5234">
				<stop  offset="0" style="stop-color:#4042E2"/>
				<stop  offset="1" style="stop-color:#4F52FF"/>
			</linearGradient>
			<path style="fill:url(#SVGID_00000025423428766666934330000017407404396327068303_);" d="M325.942,1310.068h172.945
				c11.336,0,19.722,10.545,17.173,21.591c-11.065,47.939-24.327,96.579-51.461,145.952c-5.012,9.12-14.555,14.838-24.96,14.838
				h-56.434c-10.248,0-19.652-5.631-24.509-14.655c-21.739-40.396-42.653-88.552-52.979-143.205
				C303.314,1321.867,312.997,1310.068,325.942,1310.068z"/>
		</g>
		
			<linearGradient id="SVGID_00000030460044872553522140000004980023888246251656_" gradientUnits="userSpaceOnUse" x1="1164.7543" y1="783.6184" x2="1297.8593" y2="528.5939" gradientTransform="matrix(1 0 0 1 300.6978 0)">
			<stop  offset="0" style="stop-color:#09005D"/>
			<stop  offset="1" style="stop-color:#1A0F91"/>
		</linearGradient>
		<path style="fill:url(#SVGID_00000030460044872553522140000004980023888246251656_);" d="M1476.484,836.443
			c0,0,19.574-49.866-38.328-42.283c-57.902,7.584-48.053,41.696-52.63,58.779c-4.577,17.082-28.869,36.441-96.468,62.798
			c-67.599,26.357-47.557,98.213-17.193,122.063c30.363,23.85,46.922,7.997,53.985,49.161c7.062,41.164,35.234,74.594,70.384,39.699
			c35.15-34.894,75.1-76.157,63.928-130.264c-11.173-54.107,1.48-43.871,23.291-68.692
			C1505.262,902.883,1459.032,878.857,1476.484,836.443z"/>
		<g>
			<rect x="1091.477" y="1303.957" style="fill:#7D97F4;" width="16.713" height="180.743"/>
			<path style="fill:#7D97F4;" d="M1173.025,1488.184h-146.383l0,0c0-6.009,4.871-10.879,10.879-10.879h124.625
				C1168.153,1477.305,1173.025,1482.176,1173.025,1488.184L1173.025,1488.184z"/>
			<path style="fill:#7D97F4;" d="M1194.749,1297.684c0,9.885-8.088,17.973-17.973,17.973h-148.101
				c-9.886,0-17.973-8.088-17.973-17.973v-16.252c0-9.885,8.088-17.973,17.973-17.973h148.101c9.885,0,17.973,8.088,17.973,17.973
				V1297.684z"/>
		</g>
		<g>
			
				<linearGradient id="SVGID_00000095340595641252104160000003633902283599552939_" gradientUnits="userSpaceOnUse" x1="-1229.3053" y1="464.6796" x2="-1168.7394" y2="634.4626" gradientTransform="matrix(-0.9756 -0.2194 -0.2194 0.9756 -54.275 -42.1208)">
				<stop  offset="0" style="stop-color:#09005D"/>
				<stop  offset="1" style="stop-color:#1A0F91"/>
			</linearGradient>
			<path style="fill:url(#SVGID_00000095340595641252104160000003633902283599552939_);" d="M1005.884,711.076
				c0,0,16.157-40.262-33.74-46.906c-49.896-6.644-69.1,35.337-88.824,90.431c-16.147,45.101-70.571,70-105.856,97.745
				c-44.436,34.941-65.112,88.339-48.819,144.653c13.329,46.065,63.811,61.571,107.038,59.822
				c132.284-5.354,165.241-2.526,173.216-86.21S1005.884,711.076,1005.884,711.076z"/>
			
				<linearGradient id="SVGID_00000096746473581530076210000006581397283248380074_" gradientUnits="userSpaceOnUse" x1="5953.5771" y1="790.7229" x2="5782.1694" y2="1001.4445" gradientTransform="matrix(0.9922 -0.1247 0.1247 0.9922 -4837.9824 630.3192)">
				<stop  offset="0" style="stop-color:#FF928E"/>
				<stop  offset="1" style="stop-color:#FEB3B1"/>
			</linearGradient>
			<path style="fill:url(#SVGID_00000096746473581530076210000006581397283248380074_);" d="M1151.427,732.13
				c-1.116-2.133-4.272-1.797-4.917,0.523c-2.386,8.587-8.159,23.57-20.275,28.891c-0.61,0.268-1.188,0.539-1.747,0.812
				c-0.55-1.647-0.557-3.56,0.759-5.572c3.767-5.757-3.033-13.618-3.033-13.618s-0.45,6.924-5.713,11.284
				c-4.533,3.755-6.71,12.112-3.612,18.968c6.558,25.469,16.377,59.156-21.871,83.766c-38.247,24.61-92.111-46.444-92.111-46.444
				l26.734,84.75c0,0,41.264,30.451,89.261-12.367c47.997-42.818,16.183-105.125,16.183-105.125S1167.692,763.228,1151.427,732.13z"
				/>
			
				<linearGradient id="SVGID_00000016770889665268640260000012686138321059711143_" gradientUnits="userSpaceOnUse" x1="2269.0962" y1="3807.2678" x2="1799.0956" y2="4189.2681" gradientTransform="matrix(0.9922 -0.1247 0.1247 0.9922 -4837.9824 630.3192)">
				<stop  offset="0" style="stop-color:#FE7062"/>
				<stop  offset="1" style="stop-color:#FF928E"/>
			</linearGradient>
			<path style="fill:url(#SVGID_00000016770889665268640260000012686138321059711143_);" d="M995.334,801.428
				c-11.441-3.43-44.754-9.763-76.44,19.479c-5.374,4.959-7.571,12.495-5.654,19.552c8.511,31.332,30.966,123.904,11.276,163.957
				c0,0,34.697,38.248,72.549,7.421c0,0,16.984-74.02,39.229-106.515c15.358-22.434-24.489-84.244-34.571-99.177
				C1000.196,803.884,997.946,802.211,995.334,801.428z"/>
			
				<linearGradient id="SVGID_00000062178012264312406400000018147864565765276841_" gradientUnits="userSpaceOnUse" x1="-7242.104" y1="2005.8031" x2="-7232.9463" y2="1940.7847" gradientTransform="matrix(-0.9602 0.2794 0.2794 0.9602 -6523.6289 929.3496)">
				<stop  offset="0" style="stop-color:#FF928E"/>
				<stop  offset="1" style="stop-color:#FEB3B1"/>
			</linearGradient>
			<path style="fill:url(#SVGID_00000062178012264312406400000018147864565765276841_);" d="M963.743,739.178
				c0,0-16.92,47.862-18.193,68.977c0,0,18.701,8.504,36.323-5.849c0,0,1.849-47.805,4.521-56.366L963.743,739.178z"/>
			
				<linearGradient id="SVGID_00000139252458811322429990000001692918168702285981_" gradientUnits="userSpaceOnUse" x1="-7742.6582" y1="1812.5135" x2="-7657.0322" y2="1910.9606" gradientTransform="matrix(-0.9981 0.0619 0.0619 0.9981 -6835.8677 -614.9403)">
				<stop  offset="0" style="stop-color:#FF928E"/>
				<stop  offset="1" style="stop-color:#FEB3B1"/>
			</linearGradient>
			<path style="fill:url(#SVGID_00000139252458811322429990000001692918168702285981_);" d="M1002.324,701.653
				c0,0,29.587,70.138-0.172,81.884c-29.759,11.746-50.837-38.11-50.837-38.11s-2.579-35.326,10.42-44.189
				C974.735,692.373,1002.324,701.653,1002.324,701.653z"/>
			
				<linearGradient id="SVGID_00000023997906029069216340000007000360972672062900_" gradientUnits="userSpaceOnUse" x1="-1184.2609" y1="448.6118" x2="-1123.6951" y2="618.3945" gradientTransform="matrix(-0.9756 -0.2194 -0.2194 0.9756 -54.275 -42.1208)">
				<stop  offset="0" style="stop-color:#09005D"/>
				<stop  offset="1" style="stop-color:#1A0F91"/>
			</linearGradient>
			<path style="fill:url(#SVGID_00000023997906029069216340000007000360972672062900_);" d="M985.586,682.717
				c0,0,18.779,9.161,19.54,18.762c0.761,9.601-32.02,10.971-40.772,9.43l-15.125,34.647c0,0-12.965-38.71-0.368-56.548
				C961.459,671.169,985.586,682.717,985.586,682.717z"/>
			
				<linearGradient id="SVGID_00000088836322991790472660000015384380448179665340_" gradientUnits="userSpaceOnUse" x1="-7721.2661" y1="1793.9037" x2="-7635.6406" y2="1892.3499" gradientTransform="matrix(-0.9981 0.0619 0.0619 0.9981 -6835.8677 -614.9403)">
				<stop  offset="0" style="stop-color:#FF928E"/>
				<stop  offset="1" style="stop-color:#FEB3B1"/>
			</linearGradient>
			<path style="fill:url(#SVGID_00000088836322991790472660000015384380448179665340_);" d="M960.686,742.863
				c0,0-12.428-23.244-21.967-12.059c-9.539,11.185,10.131,25.618,19.083,21.087L960.686,742.863z"/>
			
				<linearGradient id="SVGID_00000116193143710916421820000011730785091880865708_" gradientUnits="userSpaceOnUse" x1="956.2368" y1="1341.1637" x2="616.2371" y2="1503.1633">
				<stop  offset="0" style="stop-color:#FF928E"/>
				<stop  offset="1" style="stop-color:#FEB3B1"/>
			</linearGradient>
			<path style="fill:url(#SVGID_00000116193143710916421820000011730785091880865708_);" d="M1041.255,1167.25
				c-0.13,3.36,5.77,30.015,8.981,44.232c1.292,5.72,0.392,11.707-2.52,16.797l-111.2,187.154c-1.345,2.264-2.324,4.717-2.919,7.281
				c-2.038,8.783-6.264,30.307-4.058,49.889l5.752,11.947l-24.879-5.649l-5.413-66.812l7.043-4.294
				c6.085-3.71,10.822-9.256,13.535-15.846c10.055-24.425,35.024-86.597,41.46-116.897c7.315-34.435,45.554-62.404,45.554-62.404
				l-6.718-15.883L1041.255,1167.25z"/>
			
				<linearGradient id="SVGID_00000118379723938836792220000001219349791996231040_" gradientUnits="userSpaceOnUse" x1="5564.626" y1="1451.3481" x2="5624.3379" y2="1451.3481" gradientTransform="matrix(1 -0.0095 0.0095 1 -4695.7119 51.0736)">
				<stop  offset="0" style="stop-color:#09005D"/>
				<stop  offset="1" style="stop-color:#1A0F91"/>
			</linearGradient>
			<path style="fill:url(#SVGID_00000118379723938836792220000001219349791996231040_);" d="M882.762,1455.911
				c0,0,13.435-21.3,15.016-29.592c1.58-8.291,5.981-22.932,14.264-18.524c0,0,3.903,40.276,2.558,56.014
				c-1.346,15.738,17.791,15.232,17.791,15.232s5.274,0.742,9.136,4.603c2.667,2.666,0.76,7.293-3.003,7.535
				c-6.262,0.403-16.209,0.509-26.653-1.509c-3.651-0.705-6.356-3.811-6.577-7.522l-2.757-46.355l-16.947,21.399L882.762,1455.911z"
				/>
			
				<linearGradient id="SVGID_00000127746783340273457690000000302815935139818142_" gradientUnits="userSpaceOnUse" x1="1137.9504" y1="1154.9781" x2="979.9498" y2="1328.9788">
				<stop  offset="0" style="stop-color:#FF928E"/>
				<stop  offset="1" style="stop-color:#FEB3B1"/>
			</linearGradient>
			<path style="fill:url(#SVGID_00000127746783340273457690000000302815935139818142_);" d="M974.825,1197.061
				c0,0-3.922,167.409-4.453,191.185c-0.531,23.776,3.755,76.467,27.59,92.216l-10.371,7.679c0,0-12.962-11.017-25.625-32.218
				c-14.225-23.818-18.527-28.169-18.527-28.169l4.72-9.667c2.067-4.232,2.674-9.019,1.722-13.632
				c-5.143-24.929-22.326-107.847-27.014-125.703c-5.533-21.079-5.926-49.227,13.323-72.789
				C955.44,1182.399,974.825,1197.061,974.825,1197.061z"/>
			
				<linearGradient id="SVGID_00000087414151101480050610000001952217955769400718_" gradientUnits="userSpaceOnUse" x1="5619.9863" y1="1462.1326" x2="5691.1689" y2="1462.1326" gradientTransform="matrix(1 -0.0095 0.0095 1 -4695.7119 51.0736)">
				<stop  offset="0" style="stop-color:#09005D"/>
				<stop  offset="1" style="stop-color:#1A0F91"/>
			</linearGradient>
			<path style="fill:url(#SVGID_00000087414151101480050610000001952217955769400718_);" d="M952.815,1495.686
				c-0.739,0.007-1.368-0.522-1.472-1.254c-0.794-5.582-4.095-27.957-6.797-33.75c-3.095-6.636-13.206-34.563,0.006-36.934
				c0,0,32.844,47.985,39.148,54.455c6.305,6.47,14.262,2.26,14.262,2.26s6.143,1.815,10.775,7.735
				c2.205,2.817,0.151,6.954-3.427,6.988l-22.123,0.211c-6.425,0.061-12.203-3.842-14.592-9.807
				c-3.894-9.726-10.583-23.992-18.38-30.322l4.051,38.79C954.358,1494.922,953.684,1495.677,952.815,1495.686L952.815,1495.686z"/>
			
				<linearGradient id="SVGID_00000110430653116907411990000015350111415658109329_" gradientUnits="userSpaceOnUse" x1="2807.627" y1="3427.2183" x2="2337.6267" y2="3809.218" gradientTransform="matrix(1 -0.0095 0.0095 1 -4695.7119 51.0736)">
				<stop  offset="0" style="stop-color:#FE7062"/>
				<stop  offset="1" style="stop-color:#FF928E"/>
			</linearGradient>
			<path style="fill:url(#SVGID_00000110430653116907411990000015350111415658109329_);" d="M1002.302,993.787
				c0,0-4.986,15.89,2.673,42.062l47.509,165.906c0.746,2.607-0.66,5.335-3.212,6.251c-14.211,5.1-60.928,19.516-124.699,15.12
				c-3.211-0.221-5.903-2.495-6.601-5.636c-4.202-18.914-18.539-83.446-21.491-96.705c-11.248-50.524-23.806-105.01,31.443-137.956
				C953.387,993.734,977.135,1000.162,1002.302,993.787z"/>
			
				<linearGradient id="SVGID_00000139976209692049868890000009399962204176298134_" gradientUnits="userSpaceOnUse" x1="5603.7949" y1="1095.1653" x2="5942.6733" y2="707.5384" gradientTransform="matrix(0.9922 -0.1247 0.1247 0.9922 -4837.9824 630.3192)">
				<stop  offset="0" style="stop-color:#FF928E"/>
				<stop  offset="1" style="stop-color:#FEB3B1"/>
			</linearGradient>
			<path style="fill:url(#SVGID_00000139976209692049868890000009399962204176298134_);" d="M914.359,827.159
				c0,0-54.055,44.923-67.47,106.308c-13.415,61.385,78.989,67.909,78.989,67.909s12.544-14.008,27.437-9.012
				c14.893,4.996,1.153-24.448-16.271-24.37c-17.425,0.078-9.353,13.855-34.002,2.69c-24.012-10.876-38.853-44.515,22.411-95.505
				c3.551-2.956,6.385-6.724,8.091-11.018C945.445,834.201,936.005,814.562,914.359,827.159z"/>
			<path style="fill:#7D97F4;" d="M800.497,1036.49c-0.012,0-0.023,0-0.035-0.001c-11.785-0.707-25.679-5.541-34.574-12.031
				c-9.668-7.056-18.488-23.491-23.521-36.519c-10.584-27.405-7.823-54.752,8.207-81.28c11.949-19.774,31.344-39.456,59.292-60.172
				c12.168-9.02,25.237-18.002,38.839-26.695c0.26-0.167,0.605-0.092,0.772,0.169c0.167,0.261,0.091,0.606-0.169,0.772
				c-13.582,8.68-26.628,17.646-38.776,26.651c-27.829,20.628-47.128,40.206-59,59.853c-15.842,26.215-18.575,53.233-8.12,80.299
				c4.974,12.88,13.664,29.105,23.136,36.017c8.735,6.374,22.391,11.123,33.982,11.819c0.308,0.018,0.543,0.283,0.524,0.592
				C801.036,1036.261,800.789,1036.49,800.497,1036.49z"/>
			<path style="fill:#7D97F4;" d="M1000.943,694.175c-0.261,0-0.495-0.185-0.548-0.45c-0.028-0.14-2.999-14.016-19.961-17.83
				c-0.301-0.069-0.492-0.367-0.424-0.669c0.069-0.3,0.375-0.488,0.668-0.424c17.694,3.979,20.785,18.557,20.813,18.704
				c0.06,0.303-0.137,0.598-0.439,0.658C1001.015,694.172,1000.979,694.175,1000.943,694.175z"/>
		</g>
		<g>
			<g>
				
					<linearGradient id="SVGID_00000170963195488529598900000006563530503248182151_" gradientUnits="userSpaceOnUse" x1="-293.5167" y1="1122.7472" x2="-258.223" y2="1122.7472" gradientTransform="matrix(-1 0 0 1 641.9206 0)">
					<stop  offset="0" style="stop-color:#09005D"/>
					<stop  offset="1" style="stop-color:#1A0F91"/>
				</linearGradient>
				<path style="fill:url(#SVGID_00000170963195488529598900000006563530503248182151_);" d="M930.055,1149.315
					c0.755,0,1.519-0.023,2.289-0.071l-0.589-9.61c-6.966,0.418-12.74-1.68-16.679-6.093c-4.402-4.932-6.21-12.517-4.837-20.292
					c0.426-2.412,1.479-6.565,3.748-7.287c3.452-1.086,10.737,3.724,14.675,7.624l6.776-6.842
					c-2.259-2.238-14.06-13.239-24.366-9.959c-5.415,1.722-8.886,6.697-10.314,14.789c-1.91,10.813,0.691,21.156,7.135,28.377
					C913.32,1146.034,921.127,1149.314,930.055,1149.315z"/>
			</g>
			
				<linearGradient id="SVGID_00000166665182742730414840000002871731819579704251_" gradientUnits="userSpaceOnUse" x1="-351.3037" y1="1125.0081" x2="-286.4291" y2="1125.0081" gradientTransform="matrix(-1 0 0 1 641.9206 0)">
				<stop  offset="0" style="stop-color:#09005D"/>
				<stop  offset="1" style="stop-color:#1A0F91"/>
			</linearGradient>
			<path style="fill:url(#SVGID_00000166665182742730414840000002871731819579704251_);" d="M930.407,1092.571h61.553
				c1.083,0,1.263,1.141,1.263,2.224v46.724c0,9.273-6.82,15.927-16.093,15.927h-31.893c-9.273,0-16.888-6.654-16.888-15.927
				v-46.724C928.35,1093.711,929.324,1092.571,930.407,1092.571z"/>
		</g>
		<g>
			<path style="fill:#7D97F4;" d="M576.936,1282.088c-4.362,6.455-21.701,152.617-24.415,206.599
				c-0.184,3.65,2.737,6.694,6.392,6.694l0,0c3.153,0,5.834-2.296,6.321-5.411l31.714-203.233L576.936,1282.088z"/>
			<path style="fill:#7D97F4;" d="M716.341,1282.088c4.363,6.455,21.701,152.617,24.415,206.599c0.184,3.65-2.736,6.694-6.391,6.694
				l0,0c-3.152,0-5.834-2.296-6.32-5.411l-31.714-203.233L716.341,1282.088z"/>
			<path style="fill:#7D97F4;" d="M550.707,1270.681l-0.015,1.594c-0.105,11.466,9.774,20.872,22.143,21.082l146.589,2.493
				c12.191,0.207,22.353-8.603,22.945-19.891l0.076-1.459c0.617-11.773-9.381-21.692-22.095-21.92l-146.651-2.628
				C561.148,1249.728,550.813,1259.045,550.707,1270.681z"/>
		</g>
		<g>
			<path style="fill:#7D97F4;" d="M1857.589,1282.088c-4.363,6.455-21.701,152.617-24.415,206.599
				c-0.184,3.65,2.737,6.694,6.392,6.694l0,0c3.153,0,5.834-2.296,6.321-5.411l31.714-203.233L1857.589,1282.088z"/>
			<path style="fill:#7D97F4;" d="M1996.994,1282.088c4.363,6.455,21.702,152.617,24.415,206.599
				c0.184,3.65-2.736,6.694-6.391,6.694l0,0c-3.152,0-5.834-2.296-6.32-5.411l-31.714-203.233L1996.994,1282.088z"/>
			<path style="fill:#7D97F4;" d="M1831.36,1270.681l-0.015,1.594c-0.105,11.466,9.774,20.872,22.143,21.082l146.589,2.493
				c12.191,0.207,22.353-8.603,22.944-19.891l0.077-1.459c0.617-11.773-9.381-21.692-22.095-21.92l-146.651-2.628
				C1841.801,1249.728,1831.466,1259.045,1831.36,1270.681z"/>
		</g>
		<g>
			
				<linearGradient id="SVGID_00000122704928439552104310000016173247969651417245_" gradientUnits="userSpaceOnUse" x1="914.7891" y1="1148.3628" x2="994.1001" y2="1148.3628">
				<stop  offset="0" style="stop-color:#FF928E"/>
				<stop  offset="1" style="stop-color:#FEB3B1"/>
			</linearGradient>
			<path style="fill:url(#SVGID_00000122704928439552104310000016173247969651417245_);" d="M914.789,1149.15l10.281-2.74
				l31.216-7.229c3.758-0.87,7.708-0.205,10.973,1.85l26.84,16.887l-74.123-0.125L914.789,1149.15z"/>
			<g>
				<path style="fill:#7D97F4;" d="M859.503,1483.378c-26.058,0-37.588-2.235-42.743-4.274c1.002,4.28,4.813,7.658,9.63,7.658
					h92.186c3.104,0,5.064-2.971,4.322-5.662C912.39,1481.944,890.07,1483.378,859.503,1483.378z"/>
				
					<linearGradient id="SVGID_00000106116436556754550440000006209518963403702706_" gradientUnits="userSpaceOnUse" x1="898.6557" y1="1278.5415" x2="869.6133" y2="1479.1986">
					<stop  offset="0" style="stop-color:#4042E2"/>
					<stop  offset="1" style="stop-color:#4F52FF"/>
				</linearGradient>
				<path style="fill:url(#SVGID_00000106116436556754550440000006209518963403702706_);" d="M922.898,1481.099
					c-0.15-0.542-0.369-1.076-0.755-1.568c-7.023-8.966-21.129-23.046-40.317-22.775c-28.111,0.396-37.912,3.445-59.757,0.171
					l-5.153,17.082c-0.525,1.741-0.535,3.48-0.156,5.095c5.155,2.039,16.685,4.274,42.743,4.274
					C890.07,1483.378,912.39,1481.944,922.898,1481.099z"/>
			</g>
			
				<linearGradient id="SVGID_00000104685438351819721250000005985546001168930724_" gradientUnits="userSpaceOnUse" x1="822.0694" y1="1450.9004" x2="850.8297" y2="1450.9004">
				<stop  offset="0" style="stop-color:#FF928E"/>
				<stop  offset="1" style="stop-color:#FEB3B1"/>
			</linearGradient>
			<path style="fill:url(#SVGID_00000104685438351819721250000005985546001168930724_);" d="M828.396,1438.519l-6.326,21.514
				c0,0,14.014,6.379,26.34,1.258l2.42-18.64L828.396,1438.519z"/>
			<g>
				<path style="fill:#7D97F4;" d="M1019.463,1469.83c-20.314,16.322-30.695,21.809-35.984,23.456
					c3.449,2.693,8.525,2.927,12.28-0.09l71.863-57.741c2.42-1.945,2.095-5.477-0.16-7.1
					C1059.796,1435.591,1043.291,1450.683,1019.463,1469.83z"/>
				
					<linearGradient id="SVGID_00000096770003954754585340000013390629010995263118_" gradientUnits="userSpaceOnUse" x1="1042.5099" y1="1299.3612" x2="1013.4674" y2="1500.019">
					<stop  offset="0" style="stop-color:#4042E2"/>
					<stop  offset="1" style="stop-color:#4F52FF"/>
				</linearGradient>
				<path style="fill:url(#SVGID_00000096770003954754585340000013390629010995263118_);" d="M1067.461,1428.354
					c-0.455-0.327-0.959-0.604-1.567-0.744c-11.063-2.557-30.836-4.646-45.626,7.583c-21.667,17.914-27.406,26.419-46.476,37.562
					l6.631,16.48c0.677,1.68,1.753,3.035,3.055,4.051c5.289-1.647,15.671-7.134,35.984-23.456
					C1043.291,1450.683,1059.796,1435.591,1067.461,1428.354z"/>
			</g>
			
				<linearGradient id="SVGID_00000074404858364297909620000005065524014166216372_" gradientUnits="userSpaceOnUse" x1="838.4651" y1="1183.9415" x2="718.4705" y2="1416.4308">
				<stop  offset="0" style="stop-color:#09005D"/>
				<stop  offset="1" style="stop-color:#1A0F91"/>
			</linearGradient>
			<path style="fill:url(#SVGID_00000074404858364297909620000005065524014166216372_);" d="M693.075,1193.401
				c0,0,156.012,12.738,188.016,27.804c32.005,15.066-26.117,226.227-26.117,226.227s-8.713,4.193-28.1-1.834
				c0,0,19.881-155.828,5.087-189.618l-168.921-27.629L693.075,1193.401z"/>
			
				<linearGradient id="SVGID_00000016059517711408373030000006682239992977808773_" gradientUnits="userSpaceOnUse" x1="958.2913" y1="1453.3209" x2="992.6268" y2="1453.3209">
				<stop  offset="0" style="stop-color:#FF928E"/>
				<stop  offset="1" style="stop-color:#FEB3B1"/>
			</linearGradient>
			<path style="fill:url(#SVGID_00000016059517711408373030000006682239992977808773_);" d="M958.291,1443.092
				c1.449,1.32,15.501,29.662,15.501,29.662s15.644-3.385,18.834-13.285l-14.076-25.58L958.291,1443.092z"/>
			
				<linearGradient id="SVGID_00000075862929491745887960000006191801356600993696_" gradientUnits="userSpaceOnUse" x1="829.8229" y1="1096.0697" x2="811.8237" y2="1196.5646">
				<stop  offset="0" style="stop-color:#09005D"/>
				<stop  offset="1" style="stop-color:#1A0F91"/>
			</linearGradient>
			<path style="fill:url(#SVGID_00000075862929491745887960000006191801356600993696_);" d="M599.111,1192.097
				c0,0-5.084,12.233-4.877,28.49c0.287,22.483,18.362,40.726,40.818,41.848l184.432,8.41c3.895,0.177,7.19,2.873,8.166,6.648
				c4.334,16.764,25.517,68.243,129.07,170.965c2.755,2.733,7.047,3.198,10.327,1.126l14.741-9.312
				c1.548-0.977,2.041-3.006,1.116-4.585L875.519,1252.31c-5.64-9.308-14.707-16.032-25.251-18.727l-157.192-40.181
				L599.111,1192.097z"/>
			
				<linearGradient id="SVGID_00000016075332220469337450000001797462848217888686_" gradientUnits="userSpaceOnUse" x1="807.316" y1="914.2703" x2="703.8211" y2="1031.2644">
				<stop  offset="0" style="stop-color:#FF928E"/>
				<stop  offset="1" style="stop-color:#FEB3B1"/>
			</linearGradient>
			<path style="fill:url(#SVGID_00000016075332220469337450000001797462848217888686_);" d="M780.865,905.647
				c0,0-19.757,34.932-39.901,51.855l41.636,23.23c0,0,9.382-36.98,30.817-47.81L780.865,905.647z"/>
			
				<linearGradient id="SVGID_00000016765579199114558250000013602958172662159257_" gradientUnits="userSpaceOnUse" x1="734.2693" y1="1126.7723" x2="920.7116" y2="1432.849">
				<stop  offset="0" style="stop-color:#FE7062"/>
				<stop  offset="1" style="stop-color:#FF928E"/>
			</linearGradient>
			<path style="fill:url(#SVGID_00000016765579199114558250000013602958172662159257_);" d="M595.761,1193.401
				c0,0,49.79,12.134,97.314,0c0,0,66.5-89.396,92.228-113.727c0,0,41.038,64.757,132.38,73.934l5.094-11.383
				c0,0-72.718-33.522-95.104-85.028c-22.387-51.507-31.378-73.474-51.745-86.913c-12.684-8.369-20.279-14.086-24.204-17.209
				c-2.149-1.71-5.114-1.903-7.459-0.474C722.651,965.773,620.948,1035.428,595.761,1193.401z"/>
			
				<linearGradient id="SVGID_00000007427710825184350310000015213478410319496074_" gradientUnits="userSpaceOnUse" x1="752.9768" y1="1046.1398" x2="778.2294" y2="1046.1398">
				<stop  offset="0" style="stop-color:#E1473D"/>
				<stop  offset="1" style="stop-color:#E9605A"/>
			</linearGradient>
			<path style="fill:url(#SVGID_00000007427710825184350310000015213478410319496074_);" d="M774.575,1065.696
				c-1.098,0-2.184-0.494-2.905-1.433c-11.673-15.223-18.178-32.006-18.449-32.713c-0.724-1.884,0.218-3.999,2.104-4.722
				c1.885-0.725,4,0.218,4.725,2.102c0.063,0.162,6.418,16.528,17.425,30.883c1.229,1.602,0.926,3.898-0.677,5.126
				C776.133,1065.449,775.351,1065.696,774.575,1065.696z"/>
			<g>
				
					<linearGradient id="SVGID_00000152980766256250579110000017895815119725514411_" gradientUnits="userSpaceOnUse" x1="2443.9893" y1="407.9705" x2="2473.9878" y2="523.4648" gradientTransform="matrix(0.9914 -0.1306 0.1306 0.9914 -2069.7954 -150.9511)">
					<stop  offset="0" style="stop-color:#FF928E"/>
					<stop  offset="1" style="stop-color:#FEB3B1"/>
				</linearGradient>
				<path style="fill:url(#SVGID_00000152980766256250579110000017895815119725514411_);" d="M812.236,853.266
					c0,0,19.201,31.918,22.532,49.559c3.331,17.642,8.68,28.669-11.398,34.955c-20.078,6.286-38.737-1.67-50.447-18.137
					c0,0-18.288-25.342-16.464-36.948C758.284,871.089,812.236,853.266,812.236,853.266z"/>
				
					<linearGradient id="SVGID_00000165940556486428381550000001145275970097775291_" gradientUnits="userSpaceOnUse" x1="763.101" y1="829.5197" x2="850.2019" y2="941.6619">
					<stop  offset="0" style="stop-color:#E1473D"/>
					<stop  offset="1" style="stop-color:#E9605A"/>
				</linearGradient>
				<path style="fill:url(#SVGID_00000165940556486428381550000001145275970097775291_);" d="M779.885,877.801
					c0,0,60.722-20.164,55.346-48.636c-5.376-28.473-32.31-30.078-46.292-6.004c-13.982,24.074-53.683,27.777-46.158,50.284
					c3.05,13.559-23.839,26.398,34.432,52.425c-6.797-20.874-1.631-21.212,1.011-21.212c2.641,0,3.356,0,3.356,0
					S763.93,879.873,779.885,877.801z"/>
				
					<linearGradient id="SVGID_00000127013617435423358980000007890089391465257115_" gradientUnits="userSpaceOnUse" x1="2416.2988" y1="415.1559" x2="2446.2974" y2="530.6503" gradientTransform="matrix(0.9914 -0.1306 0.1306 0.9914 -2069.7954 -150.9511)">
					<stop  offset="0" style="stop-color:#FF928E"/>
					<stop  offset="1" style="stop-color:#FEB3B1"/>
				</linearGradient>
				<path style="fill:url(#SVGID_00000127013617435423358980000007890089391465257115_);" d="M779.334,909.154
					c0,0-8.473-20.888-17.371-13.546c-8.898,7.342,8.225,23.572,16.128,23.354L779.334,909.154z"/>
				
					<linearGradient id="SVGID_00000015316426530953603860000013412959238208696486_" gradientUnits="userSpaceOnUse" x1="810.9753" y1="830.9537" x2="826.6347" y2="830.9537">
					<stop  offset="0" style="stop-color:#FF928E"/>
					<stop  offset="1" style="stop-color:#FEB3B1"/>
				</linearGradient>
				<path style="fill:url(#SVGID_00000015316426530953603860000013412959238208696486_);" d="M818.806,849.036
					c-0.22,0-0.428-0.13-0.517-0.345c-0.118-0.285,0.017-0.612,0.301-0.731c0.283-0.118,6.925-3.035,6.925-15.143
					c0-12.177-14.073-18.814-14.216-18.88c-0.28-0.13-0.402-0.462-0.273-0.743c0.131-0.281,0.461-0.402,0.743-0.273
					c0.149,0.069,14.865,7.01,14.865,19.895c0,12.903-7.307,16.049-7.618,16.177C818.948,849.023,818.876,849.036,818.806,849.036z"
					/>
			</g>
		</g>
		<g>
			<rect x="1501.541" y="1303.957" style="fill:#7D97F4;" width="16.713" height="180.743"/>
			<path style="fill:#7D97F4;" d="M1583.089,1488.184h-146.383l0,0c0-6.009,4.871-10.879,10.879-10.879h124.625
				C1578.218,1477.305,1583.089,1482.176,1583.089,1488.184L1583.089,1488.184z"/>
			<path style="fill:#7D97F4;" d="M1604.814,1297.684c0,9.885-8.088,17.973-17.973,17.973h-148.101
				c-9.885,0-17.973-8.088-17.973-17.973v-16.252c0-9.885,8.088-17.973,17.973-17.973h148.101c9.885,0,17.973,8.088,17.973,17.973
				V1297.684z"/>
		</g>
		<g>
			
				<linearGradient id="SVGID_00000143577501987295829310000017658379148992556194_" gradientUnits="userSpaceOnUse" x1="1327.5042" y1="1331.7217" x2="1446.3405" y2="1331.7217">
				<stop  offset="0" style="stop-color:#FF928E"/>
				<stop  offset="1" style="stop-color:#FEB3B1"/>
			</linearGradient>
			<path style="fill:url(#SVGID_00000143577501987295829310000017658379148992556194_);" d="M1386.513,1183.443
				c0,0-24.835,3.85-52.757,22.516c-4.395,2.938-6.805,8.059-6.143,13.303c3.344,26.484,17.091,112.205,62.423,195.93
				c2.39,4.415,3.077,9.554,2.023,14.462l-7.876,36.652L1369.577,1480h37.62l25.048-67.785l-10.711-3.387
				c-8.304-2.626-14.002-10.264-14.153-18.973l-1.257-72.714c1.072-32.396-19.864-54.748-19.864-54.748l60.08-2.923
				L1386.513,1183.443z"/>
			
				<linearGradient id="SVGID_00000107567295101767273090000002900233100254664891_" gradientUnits="userSpaceOnUse" x1="1400.2155" y1="1409.1556" x2="1382.7365" y2="1677.1661">
				<stop  offset="0" style="stop-color:#4042E2"/>
				<stop  offset="1" style="stop-color:#4F52FF"/>
			</linearGradient>
			<path style="fill:url(#SVGID_00000107567295101767273090000002900233100254664891_);" d="M1354.887,1486.613
				c-3.426,4.484,36.875,10.401,57.236,0.593c0,0,28.224-49.107,28.224-74.391c0,0-2.24-5.155-18.813-3.986
				c0,0-9.477,58.145-19.484,64.658c-10.007,6.513-27.997,0.659-27.997,0.659S1359.942,1479.997,1354.887,1486.613z"/>
			
				<linearGradient id="SVGID_00000007416293512100388080000017540961820552704905_" gradientUnits="userSpaceOnUse" x1="1187.9705" y1="1339.8394" x2="1438.739" y2="1339.8394">
				<stop  offset="0" style="stop-color:#FF928E"/>
				<stop  offset="1" style="stop-color:#FEB3B1"/>
			</linearGradient>
			<path style="fill:url(#SVGID_00000007416293512100388080000017540961820552704905_);" d="M1438.739,1263.459
				c-0.319-0.553-64.686-7.739-64.686-7.739s2.106,19.571-4.477,46.511c-6.583,26.941-101.087,143.662-101.087,143.662l9.909,31.412
				c-30.637,10.672-60.774,12.378-90.429,5.44l61.409-36.852c0,0,57.472-195.854,92.675-230.794l64.519-22.322L1438.739,1263.459z"
				/>
			
				<linearGradient id="SVGID_00000116198720182104696990000004630386842829996419_" gradientUnits="userSpaceOnUse" x1="1342.7032" y1="1209.0222" x2="1623.6362" y2="1209.0222">
				<stop  offset="0" style="stop-color:#4042E2"/>
				<stop  offset="1" style="stop-color:#4F52FF"/>
			</linearGradient>
			<path style="fill:url(#SVGID_00000116198720182104696990000004630386842829996419_);" d="M1583.089,1149.499
				c0,0,37.084,55.158,40.127,80.318c3.043,25.161-10.158,35.385-49.069,37.07c-38.911,1.686-142.787,1.659-142.787,1.659
				l-88.657-75.768c0,0,64.609-23.054,81.407-29.573C1440.908,1156.686,1583.089,1149.499,1583.089,1149.499z"/>
			
				<linearGradient id="SVGID_00000178926855330913605740000010398393713743203484_" gradientUnits="userSpaceOnUse" x1="1231.5457" y1="1398.1556" x2="1214.0668" y2="1666.166">
				<stop  offset="0" style="stop-color:#4042E2"/>
				<stop  offset="1" style="stop-color:#4F52FF"/>
			</linearGradient>
			<path style="fill:url(#SVGID_00000178926855330913605740000010398393713743203484_);" d="M1274.655,1466.727
				c0,0,10.668,10.333,3.462,21.829c0,0-84.509,14.98-107.454,8.183c0,0,4.764-10.874,30.601-23.252l-1.906,1.463
				c-2.412,1.852-0.997,5.71,2.039,5.537C1218.421,1479.516,1253.655,1476.397,1274.655,1466.727z"/>
		</g>
		
			<linearGradient id="SVGID_00000051345981147338099720000011610777853449083299_" gradientUnits="userSpaceOnUse" x1="1529.1509" y1="1112.9265" x2="1662.4001" y2="1402.939">
			<stop  offset="0" style="stop-color:#FE7062"/>
			<stop  offset="1" style="stop-color:#FF928E"/>
		</linearGradient>
		<path style="fill:url(#SVGID_00000051345981147338099720000011610777853449083299_);" d="M1482.799,1142.197
			c0,0-43.184-41.121-64.442-68.356c-11.491-14.723-15.099-34.104-9.785-52.008c9.705-32.697,26.952-66.562,28.525-71.833
			c2.411-8.079,50.832-7.742,50.832-7.742s95.283,61.84,132.721,166.592l-42.044,13.089c0,0-24.879-41.738-49.46-68.275
			c0,0,42.535,56.19,44.033,79.193L1482.799,1142.197z"/>
		
			<linearGradient id="SVGID_00000078731952838705451540000016883836470203233716_" gradientUnits="userSpaceOnUse" x1="1472.1346" y1="1011.696" x2="1455.207" y2="903.0776">
			<stop  offset="0" style="stop-color:#FF928E"/>
			<stop  offset="1" style="stop-color:#FEB3B1"/>
		</linearGradient>
		<path style="fill:url(#SVGID_00000078731952838705451540000016883836470203233716_);" d="M1431.242,904.849
			c0.506,1.679,13.144,43.577,14.132,44.446c0.989,0.87,27.716,2.307,40.297-6.291l-31.207-61.04L1431.242,904.849z"/>
		<g>
			
				<linearGradient id="SVGID_00000150799197203600440170000007766477572419425424_" gradientUnits="userSpaceOnUse" x1="3005.2039" y1="-2183.6401" x2="3138.3115" y2="-2438.6699" gradientTransform="matrix(-0.9996 -0.0265 -0.0265 0.9996 898.713 -4011.4753)">
				<stop  offset="0" style="stop-color:#FF928E"/>
				<stop  offset="1" style="stop-color:#FEB3B1"/>
			</linearGradient>
			<path style="fill:url(#SVGID_00000150799197203600440170000007766477572419425424_);" d="M1450.638,828.793
				c0,0,22.552,10.237,37.184,43.606c14.632,33.37,2.647,48.279-11.955,49.982c-14.602,1.702-36.349,0.807-58.794-21.095
				C1394.628,879.385,1421.292,816.589,1450.638,828.793z"/>
			
				<linearGradient id="SVGID_00000163792412374490384540000003207044538020220345_" gradientUnits="userSpaceOnUse" x1="3010.3218" y1="-2180.856" x2="3143.428" y2="-2435.8828" gradientTransform="matrix(-0.9996 -0.0265 -0.0265 0.9996 898.713 -4011.4753)">
				<stop  offset="0" style="stop-color:#09005D"/>
				<stop  offset="1" style="stop-color:#1A0F91"/>
			</linearGradient>
			<path style="fill:url(#SVGID_00000163792412374490384540000003207044538020220345_);" d="M1433.009,884.102
				c0,0-15.927-48.676,26.839-48.11l9.872,7.298c0,0,16.396-26.317-9.01-39.763c-25.406-13.445-55.817-3.705-67.694,30.689
				c-11.877,34.394-14.365,57.563,3.422,74.641c17.786,17.079,25.798-1.538,25.798-1.538s-9.514-15.785-5.252-23.981
				c4.262-8.197,13.315,2.073,13.315,2.073L1433.009,884.102z"/>
			
				<linearGradient id="SVGID_00000029036474425213939100000011126061635086170518_" gradientUnits="userSpaceOnUse" x1="3032.8394" y1="-2169.2029" x2="3165.947" y2="-2424.2329" gradientTransform="matrix(-0.9996 -0.0265 -0.0265 0.9996 898.713 -4011.4753)">
				<stop  offset="0" style="stop-color:#FF928E"/>
				<stop  offset="1" style="stop-color:#FEB3B1"/>
			</linearGradient>
			<path style="fill:url(#SVGID_00000029036474425213939100000011126061635086170518_);" d="M1428.072,889.345
				c0,0-8.041-25.07-19.909-15.486c-11.869,9.583,8.823,23.194,16.948,27.641L1428.072,889.345z"/>
		</g>
		
			<linearGradient id="SVGID_00000108310240326365612520000012952724270314670254_" gradientUnits="userSpaceOnUse" x1="1541.645" y1="1135.0242" x2="1777.212" y2="1135.0242">
			<stop  offset="0" style="stop-color:#FF928E"/>
			<stop  offset="1" style="stop-color:#FEB3B1"/>
		</linearGradient>
		<path style="fill:url(#SVGID_00000108310240326365612520000012952724270314670254_);" d="M1394.822,1145.25l31.729-30.582
			l43.892,18.542c0,0,43.69,6.769,68.695,0c25.005-6.769,25.005-6.769,25.005-6.769l56.507-17.592l8.875,25.081
			c2.253,6.368-0.011,13.438-5.517,17.35c-4.888,3.474-10.619,7.292-14.271,8.889c-7.441,3.256-183.44-2.252-183.44-2.252
			L1394.822,1145.25z"/>
		<g>
			<g>
				
					<linearGradient id="SVGID_00000166673273529310244070000007123957997486520210_" gradientUnits="userSpaceOnUse" x1="-9645.0361" y1="1629.1165" x2="-9643.5811" y2="1783.3536" gradientTransform="matrix(-1 0 0 1 -7955.2798 0)">
					<stop  offset="0" style="stop-color:#09005D"/>
					<stop  offset="1" style="stop-color:#1A0F91"/>
				</linearGradient>
				<path style="fill:url(#SVGID_00000166673273529310244070000007123957997486520210_);" d="M1736.552,1447.214
					c0,0,1.809,10.045,2.523,21.97c0.305,5.081-3.461,9.497-8.528,9.988c-17.643,1.711-57.803,4.871-83.446,1.171
					c-3.592-0.519-5.019-4.931-2.364-7.405c10.574-9.851,36.108-29.013,78.137-33.202L1736.552,1447.214z"/>
				
					<linearGradient id="SVGID_00000134962546960354029240000018144918167754572467_" gradientUnits="userSpaceOnUse" x1="-9682.2148" y1="1456.8723" x2="-9690.2168" y2="1394.3051" gradientTransform="matrix(-1 0 0 1 -7955.2798 0)">
					<stop  offset="0" style="stop-color:#FF928E"/>
					<stop  offset="1" style="stop-color:#FEB3B1"/>
				</linearGradient>
				<path style="fill:url(#SVGID_00000134962546960354029240000018144918167754572467_);" d="M1745.322,1424.571l-8.92,21.864
					c-1.223,2.996-4.262,4.859-7.481,4.522c-2.184-0.228-4.771-0.648-7.287-1.411c-5.034-1.528-7.873-6.864-6.366-11.905
					l6.733-22.52L1745.322,1424.571z"/>
				
					<linearGradient id="SVGID_00000110428711974202028320000013049975090985682615_" gradientUnits="userSpaceOnUse" x1="-9853.4199" y1="1631.0812" x2="-9851.9648" y2="1785.3171" gradientTransform="matrix(-1 0 0 1 -7955.2798 0)">
					<stop  offset="0" style="stop-color:#09005D"/>
					<stop  offset="1" style="stop-color:#1A0F91"/>
				</linearGradient>
				<path style="fill:url(#SVGID_00000110428711974202028320000013049975090985682615_);" d="M1897.828,1464.628
					c0,0-17.862,14.946-24.822,34.116c-1.914,5.273,2.132,10.827,7.741,10.827h36.758c5.38,0,9.505-4.84,8.568-10.138
					C1923.731,1486.195,1916.98,1464.683,1897.828,1464.628z"/>
				
					<linearGradient id="SVGID_00000083804752471073150220000017524822128103077298_" gradientUnits="userSpaceOnUse" x1="-9857.1279" y1="1478.3163" x2="-9864.9268" y2="1417.3456" gradientTransform="matrix(-1 0 0 1 -7955.2798 0)">
					<stop  offset="0" style="stop-color:#FF928E"/>
					<stop  offset="1" style="stop-color:#FEB3B1"/>
				</linearGradient>
				<path style="fill:url(#SVGID_00000083804752471073150220000017524822128103077298_);" d="M1919.956,1445.177
					c0,0-3.608,15.97-6.382,26.524c-0.503,1.916-2.547,2.967-4.413,2.299c-5.563-1.989-10.089-2.868-13.38-2.426
					c-1.521,0.204-2.849-1.062-2.87-2.596l-0.345-26.525L1919.956,1445.177z"/>
				
					<linearGradient id="SVGID_00000041297977630516017300000014526081764755298976_" gradientUnits="userSpaceOnUse" x1="-9911.627" y1="1246.6385" x2="-9671.5879" y2="1246.6385" gradientTransform="matrix(-1 0 0 1 -7955.2798 0)">
					<stop  offset="0" style="stop-color:#09005D"/>
					<stop  offset="1" style="stop-color:#1A0F91"/>
				</linearGradient>
				<path style="fill:url(#SVGID_00000041297977630516017300000014526081764755298976_);" d="M1824.956,1085.826l-108.648,331.458
					c0,0,20.839,13.648,30.767,13.079l129.05-266.38c0,0,22.582,164.134,11.64,281.97l36.963,2.82c0,0,60.103-301.131,14.579-404.27
					L1824.956,1085.826z"/>
				
					<linearGradient id="SVGID_00000111892914148909334540000012435118360504656015_" gradientUnits="userSpaceOnUse" x1="-9861.8369" y1="1209.8107" x2="-9853.1064" y2="1192.35" gradientTransform="matrix(-1 0 0 1 -7955.2798 0)">
					<stop  offset="0" style="stop-color:#53D8FF"/>
					<stop  offset="1" style="stop-color:#3840F7"/>
				</linearGradient>
				<path style="fill:url(#SVGID_00000111892914148909334540000012435118360504656015_);" d="M1875.427,1161.12
					c0.043,0,0.088-0.003,0.133-0.008c0.576-0.073,0.985-0.599,0.912-1.175l-4.217-33.466c-0.071-0.575-0.592-0.977-1.175-0.912
					c-0.576,0.073-0.985,0.599-0.912,1.175l4.216,33.466C1874.451,1160.731,1874.903,1161.12,1875.427,1161.12z"/>
			</g>
			
				<linearGradient id="SVGID_00000173158956294386809650000018301213169349095040_" gradientUnits="userSpaceOnUse" x1="1723.8816" y1="1060.8081" x2="1497.8807" y2="1282.8086">
				<stop  offset="0" style="stop-color:#FE7062"/>
				<stop  offset="1" style="stop-color:#FF928E"/>
			</linearGradient>
			<path style="fill:url(#SVGID_00000173158956294386809650000018301213169349095040_);" d="M1804.587,794.16
				c0,0,88.026,7.817,75.574,70.537c0,0,48.658,91.57,71.407,199.438c0.74,3.51-1.611,6.934-5.147,7.539l-146.592,25.099
				c-4.044,0.692-7.944-1.829-8.972-5.801l-35.026-135.367l-13.649,62.937l-43.368-11.3l36.509-184.939
				C1735.324,822.303,1740.417,795.32,1804.587,794.16z"/>
			
				<linearGradient id="SVGID_00000119811958478332218510000016911190686073126057_" gradientUnits="userSpaceOnUse" x1="-9684.2832" y1="941.7469" x2="-9631.1729" y2="998.4944" gradientTransform="matrix(-1 0 0 1 -7955.2798 0)">
				<stop  offset="0" style="stop-color:#E1473D"/>
				<stop  offset="1" style="stop-color:#E9605A"/>
			</linearGradient>
			<path style="fill:url(#SVGID_00000119811958478332218510000016911190686073126057_);" d="M1755.086,949.55
				c0.077,0,0.154-0.007,0.234-0.024c0.588-0.129,0.962-0.71,0.834-1.299l-12.219-56.108c-0.129-0.589-0.703-0.959-1.299-0.835
				c-0.588,0.129-0.962,0.71-0.834,1.299l12.219,56.109C1754.132,949.201,1754.584,949.55,1755.086,949.55z"/>
			
				<linearGradient id="SVGID_00000153697325578798950770000015071445057022082192_" gradientUnits="userSpaceOnUse" x1="-9798.1855" y1="1077.8706" x2="-9688.8848" y2="1077.8706" gradientTransform="matrix(-1 0 0 1 -7955.2798 0)">
				<stop  offset="0" style="stop-color:#FF928E"/>
				<stop  offset="1" style="stop-color:#FEB3B1"/>
			</linearGradient>
			<path style="fill:url(#SVGID_00000153697325578798950770000015071445057022082192_);" d="M1763.935,1116.512
				c4.618-2.539,10.023-3.242,15.137-1.969l10.199,2.539c2.169,0.54,4.316-0.953,4.565-3.173l10.555-93.944
				c13.197,6.267,32.237,5.518,38.516,5.059l-24.292,110.752h-85.009L1763.935,1116.512z"/>
			
				<linearGradient id="SVGID_00000059993475866778140190000017616360147256004015_" gradientUnits="userSpaceOnUse" x1="-9697.4629" y1="940.8555" x2="-9493.3486" y2="940.8555" gradientTransform="matrix(-1 0 0 1 -7955.2798 0)">
				<stop  offset="0" style="stop-color:#FF928E"/>
				<stop  offset="1" style="stop-color:#FEB3B1"/>
			</linearGradient>
			<path style="fill:url(#SVGID_00000059993475866778140190000017616360147256004015_);" d="M1538.068,912.739l2.569-8.539
				c1.479-4.914,5.111-8.89,9.873-10.804l46.471-18.688c0,0,0.702-5.96-9.819-10.01c-10.52-4.05-8.061-15.832-8.061-15.832
				s14.373,6.557,35.414,16.955c12.034,5.947,18.785,16.447,22.365,24.35l105.302,128.372l-12.363,8.494
				c-16.256,11.171-38.617,5.683-47.855-11.744l-57.045-109.389C1596.278,914.507,1567.297,916.151,1538.068,912.739z"/>
			<g>
				
					<linearGradient id="SVGID_00000090976168968564848490000014851056108353719191_" gradientUnits="userSpaceOnUse" x1="-9770.9463" y1="826.3748" x2="-9699.9102" y2="753.4933" gradientTransform="matrix(-1 0 0 1 -7955.2798 0)">
					<stop  offset="0" style="stop-color:#FF928E"/>
					<stop  offset="1" style="stop-color:#FEB3B1"/>
				</linearGradient>
				<path style="fill:url(#SVGID_00000090976168968564848490000014851056108353719191_);" d="M1776.07,734.275l27.074,75.774
					c0,0-23.974,18.743-41.469,12.406l-13.643-43.436C1748.031,779.018,1758.451,725.932,1776.07,734.275z"/>
				<g>
					
						<linearGradient id="SVGID_00000142144650505063397280000003081572594985836967_" gradientUnits="userSpaceOnUse" x1="-7959.8193" y1="513.4949" x2="-8055.0103" y2="639.4245" gradientTransform="matrix(-0.8174 -0.576 -0.576 0.8174 -4462.5151 -4312.0708)">
						<stop  offset="0" style="stop-color:#FF928E"/>
						<stop  offset="1" style="stop-color:#FEB3B1"/>
					</linearGradient>
					<path style="fill:url(#SVGID_00000142144650505063397280000003081572594985836967_);" d="M1733.117,681.306
						c-0.723,1.026-22.796,81.008-22.796,81.008l45.936,11.633l32.183-72.698C1788.441,701.249,1745.219,664.133,1733.117,681.306z"
						/>
					
						<linearGradient id="SVGID_00000104699369082069283880000011136836855769240495_" gradientUnits="userSpaceOnUse" x1="-8032.5186" y1="543.8724" x2="-7918.8125" y2="543.8724" gradientTransform="matrix(-0.8174 -0.576 -0.576 0.8174 -4462.5151 -4312.0708)">
						<stop  offset="0" style="stop-color:#09005D"/>
						<stop  offset="1" style="stop-color:#1A0F91"/>
					</linearGradient>
					<path style="fill:url(#SVGID_00000104699369082069283880000011136836855769240495_);" d="M1771.155,712.303l-13.945,39.596
						c-0.179,0.508-0.419,0.977-0.728,1.418c-1.895,2.696-9.093,11.494-17.645,3.581c-7.76-7.18-14.949-13.618-21.584-14.783
						c-2.979-0.523-5.864,1.297-6.667,4.213c-2.004,7.268-6.216,23.727-7.693,38.586c-0.3,3.015,1.784,5.738,4.761,6.301
						c8.971,1.697,27.993,4.746,43.87,3.614c2.151-0.153,4.043-1.446,4.94-3.407c4.368-9.565,17.752-38.586,22.733-46.096
						c4.675-7.049,16.148-6.86,20.96-6.438c1.578,0.138,3.129-0.371,4.318-1.416c4.207-3.693,12.211-13.12,0.933-24.388
						c-2.361-2.358-2.3-6.166,0.129-8.453c4.836-4.554,10.006-12.629,1.935-22.632c-8.203-10.168-19.021-8.54-25.647-6.116
						c-2.679,0.98-5.604-0.15-7.063-2.602c-0.831-1.396-2.278-2.452-4.786-2.234c-3.38,0.294-6.225-2.526-6.167-5.918
						c0.112-6.518-2.228-14.751-13.536-18.261c-20.068-6.229-32.564,13.163-33.792,27.627s20.913,19.98,33.929,18.995
						c9.896-0.749,17.252,9.055,20.21,13.797C1771.554,708.791,1771.743,710.633,1771.155,712.303z"/>
					
						<linearGradient id="SVGID_00000159448939752656262690000016978251288840273032_" gradientUnits="userSpaceOnUse" x1="-8099.2354" y1="613.2214" x2="-8022.8857" y2="534.889" gradientTransform="matrix(-0.8174 -0.576 -0.576 0.8174 -4462.5151 -4312.0708)">
						<stop  offset="0" style="stop-color:#FF928E"/>
						<stop  offset="1" style="stop-color:#FEB3B1"/>
					</linearGradient>
					<path style="fill:url(#SVGID_00000159448939752656262690000016978251288840273032_);" d="M1773.974,759.693
						c0,0,3.222-25.111,13.666-26.349c10.444-1.239,20.617,7.338,10.243,21.439C1784.98,772.323,1773.974,759.693,1773.974,759.693z
						"/>
					<path style="fill:#7D97F4;" d="M1736.371,684.273c-0.014,0-0.027,0-0.042-0.001c-4.197-0.304-7.869-2.287-10.077-5.442
						c-2.133-3.049-2.738-6.973-1.658-10.766c1.873-6.582,6.786-13.044,13.143-17.286c0.255-0.172,0.604-0.104,0.776,0.155
						c0.172,0.257,0.102,0.604-0.155,0.776c-6.142,4.098-10.885,10.327-12.688,16.661c-1.002,3.519-0.469,7.006,1.5,9.819
						c2.044,2.92,5.325,4.684,9.241,4.967c0.308,0.023,0.54,0.29,0.518,0.599C1736.906,684.048,1736.661,684.273,1736.371,684.273z"
						/>
				</g>
			</g>
			
				<linearGradient id="SVGID_00000143585726520232465920000012657050317286825661_" gradientUnits="userSpaceOnUse" x1="-9806.0547" y1="984.3506" x2="-9846.9775" y2="1104.9388" gradientTransform="matrix(-1 0 0 1 -7955.2798 0)">
				<stop  offset="0" style="stop-color:#E1473D"/>
				<stop  offset="1" style="stop-color:#E9605A"/>
			</linearGradient>
			<path style="fill:url(#SVGID_00000143585726520232465920000012657050317286825661_);" d="M1834.364,1026.434
				c6.007,0,10.296-0.456,10.76-0.507l0.781-0.088l32.053-149.442c0.126-0.589-0.248-1.17-0.838-1.296
				c-0.596-0.131-1.169,0.249-1.296,0.838l-31.72,147.891c-4.77,0.419-30.243,2.11-43.69-7.416l27.766-129.836l-5.795-10.921
				c-0.282-0.533-0.944-0.736-1.476-0.453c-0.533,0.283-0.735,0.943-0.453,1.476l5.424,10.22l-27.894,130.433l0.557,0.419
				C1808.259,1025.052,1823.91,1026.434,1834.364,1026.434z"/>
		</g>
		<g>
			<path style="fill:#7D97F4;" d="M803.129,1502.615c-0.786,0-1.585-0.171-2.353-0.532c-3.025-1.421-4.423-5.249-3.122-8.551
				l125.065-317.33c1.3-3.301,4.806-4.825,7.834-3.407c3.025,1.421,4.423,5.249,3.122,8.551l-125.065,317.33
				C807.64,1501.139,805.44,1502.615,803.129,1502.615z"/>
			<path style="fill:#7D97F4;" d="M944.02,1502.615c-2.311,0-4.511-1.474-5.481-3.938l-125.065-317.33
				c-1.301-3.302,0.096-7.13,3.122-8.551c3.023-1.421,6.532,0.104,7.835,3.407l125.064,317.33c1.302,3.302-0.096,7.13-3.122,8.551
				C945.606,1502.444,944.806,1502.615,944.02,1502.615z"/>
			<path style="fill:#7D97F4;" d="M1651.911,1502.615c-0.786,0-1.585-0.171-2.354-0.532c-3.025-1.421-4.423-5.249-3.121-8.551
				l125.064-317.33c1.302-3.301,4.805-4.825,7.834-3.407c3.025,1.421,4.423,5.249,3.121,8.551l-125.065,317.33
				C1656.421,1501.139,1654.222,1502.615,1651.911,1502.615z"/>
			<path style="fill:#7D97F4;" d="M1792.801,1502.615c-2.311,0-4.51-1.474-5.481-3.938l-125.064-317.33
				c-1.302-3.302,0.096-7.13,3.121-8.551c3.023-1.421,6.531,0.104,7.834,3.407l125.064,317.33c1.302,3.302-0.096,7.13-3.121,8.551
				C1794.387,1502.444,1793.587,1502.615,1792.801,1502.615z"/>
		</g>
		<g>
			<path style="fill:#91B3FA;" d="M1633.764,1153.79h181.138v-18.693h-181.138C1637.641,1135.097,1637.641,1153.79,1633.764,1153.79
				z"/>
			
				<linearGradient id="SVGID_00000076562806954192238060000011333139171479491728_" gradientUnits="userSpaceOnUse" x1="-5858.1772" y1="1247.5833" x2="-5858.9536" y2="1200.999" gradientTransform="matrix(-1 0 0 1 -4129.2798 0)">
				<stop  offset="0" style="stop-color:#FE7062"/>
				<stop  offset="1" style="stop-color:#FF928E"/>
			</linearGradient>
			<path style="fill:url(#SVGID_00000076562806954192238060000011333139171479491728_);" d="M1813.903,1153.79c0.55,0,1-0.45,1-1
				v-16.693c0-0.55-0.45-1-1-1h-184.662c-0.55,0-1-0.45-1-1v-2.227c0-0.55,0.45-1,1-1h196.034c4.321,0,7.823,3.502,7.823,7.823
				v11.948c0,4.073-3.302,7.375-7.376,7.375h-196.481c-0.55,0-1-0.45-1-1v-2.227c0-0.55,0.45-1,1-1H1813.903z"/>
		</g>
		<path style="fill:#7D97F4;" d="M1841.159,1166.391c0.609-2.087-0.22-4.245-2.259-5.884c-2.039-1.639-5.076-2.589-8.28-2.589
			H745.256c-4.214,0-8.137,1.425-10.406,3.779c-2.271,2.355-2.575,5.314-0.808,7.852l11.762,16.885
			c2.693,3.867,8.529,6.343,14.951,6.343h1062.418c5.974,0,11.108-2.81,12.243-6.7L1841.159,1166.391z"/>
		<g>
			<g>
				
					<linearGradient id="SVGID_00000076569575163841278450000014371000861207450810_" gradientUnits="userSpaceOnUse" x1="1399.3286" y1="1122.7472" x2="1434.6222" y2="1122.7472">
					<stop  offset="0" style="stop-color:#4042E2"/>
					<stop  offset="1" style="stop-color:#4F52FF"/>
				</linearGradient>
				<path style="fill:url(#SVGID_00000076569575163841278450000014371000861207450810_);" d="M1404.711,1149.315
					c-0.755,0-1.519-0.023-2.289-0.071l0.589-9.61c6.966,0.418,12.739-1.68,16.679-6.093c4.402-4.932,6.21-12.517,4.837-20.292
					c-0.426-2.412-1.479-6.565-3.748-7.287c-3.452-1.086-10.737,3.724-14.675,7.624l-6.776-6.842
					c2.259-2.238,14.059-13.239,24.366-9.959c5.415,1.722,8.886,6.697,10.314,14.789c1.91,10.813-0.691,21.156-7.135,28.377
					C1421.446,1146.034,1413.639,1149.314,1404.711,1149.315z"/>
			</g>
			
				<linearGradient id="SVGID_00000150796222454428517270000001261136713400251032_" gradientUnits="userSpaceOnUse" x1="1339.9679" y1="1125.0081" x2="1405.0077" y2="1125.0081">
				<stop  offset="0" style="stop-color:#4042E2"/>
				<stop  offset="1" style="stop-color:#4F52FF"/>
			</linearGradient>
			<path style="fill:url(#SVGID_00000150796222454428517270000001261136713400251032_);" d="M1404.358,1092.571h-61.553
				c-1.083,0-2.837,1.141-2.837,2.224v46.724c0,9.273,8.393,15.927,17.667,15.927h31.893c9.274,0,15.314-6.654,15.314-15.927
				v-46.724C1404.843,1093.711,1405.442,1092.571,1404.358,1092.571z"/>
		</g>
		<g>
			<g>
				
					<linearGradient id="SVGID_00000098184697370331945610000004636305378034846355_" gradientUnits="userSpaceOnUse" x1="1103.7156" y1="1122.7472" x2="1139.0094" y2="1122.7472">
					<stop  offset="0" style="stop-color:#4042E2"/>
					<stop  offset="1" style="stop-color:#4F52FF"/>
				</linearGradient>
				<path style="fill:url(#SVGID_00000098184697370331945610000004636305378034846355_);" d="M1133.627,1149.315
					c0.755,0,1.519-0.023,2.289-0.071l-0.589-9.61c-6.966,0.418-12.74-1.68-16.679-6.093c-4.402-4.932-6.21-12.517-4.837-20.292
					c0.426-2.412,1.479-6.565,3.748-7.287c3.452-1.086,10.737,3.724,14.675,7.624l6.776-6.842
					c-2.259-2.238-14.06-13.239-24.366-9.959c-5.415,1.722-8.886,6.697-10.314,14.789c-1.91,10.813,0.691,21.156,7.135,28.377
					C1116.892,1146.034,1124.699,1149.314,1133.627,1149.315z"/>
			</g>
			
				<linearGradient id="SVGID_00000153671580944581758790000002402419136868335273_" gradientUnits="userSpaceOnUse" x1="1131.9218" y1="1125.0081" x2="1196.7964" y2="1125.0081">
				<stop  offset="0" style="stop-color:#4042E2"/>
				<stop  offset="1" style="stop-color:#4F52FF"/>
			</linearGradient>
			<path style="fill:url(#SVGID_00000153671580944581758790000002402419136868335273_);" d="M1133.98,1092.571h61.553
				c1.083,0,1.264,1.141,1.264,2.224v46.724c0,9.273-6.82,15.927-16.093,15.927h-31.894c-9.273,0-16.888-6.654-16.888-15.927
				v-46.724C1131.922,1093.711,1132.896,1092.571,1133.98,1092.571z"/>
		</g>
		<g>
			<g>
				
					<linearGradient id="SVGID_00000168078481678060770370000006415961842802698901_" gradientUnits="userSpaceOnUse" x1="1696.8569" y1="1122.7472" x2="1732.1505" y2="1122.7472">
					<stop  offset="0" style="stop-color:#09005D"/>
					<stop  offset="1" style="stop-color:#1A0F91"/>
				</linearGradient>
				<path style="fill:url(#SVGID_00000168078481678060770370000006415961842802698901_);" d="M1702.239,1149.315
					c-0.755,0-1.519-0.023-2.289-0.071l0.589-9.61c6.966,0.418,12.739-1.68,16.679-6.093c4.402-4.932,6.21-12.517,4.837-20.292
					c-0.426-2.412-1.479-6.565-3.748-7.287c-3.452-1.086-10.737,3.724-14.675,7.624l-6.776-6.842
					c2.259-2.238,14.059-13.239,24.366-9.959c5.415,1.722,8.886,6.697,10.314,14.789c1.91,10.813-0.691,21.156-7.135,28.377
					C1718.974,1146.034,1711.168,1149.314,1702.239,1149.315z"/>
			</g>
			
				<linearGradient id="SVGID_00000049188898584223829990000001195084349042101690_" gradientUnits="userSpaceOnUse" x1="1637.4963" y1="1125.0081" x2="1702.5361" y2="1125.0081">
				<stop  offset="0" style="stop-color:#09005D"/>
				<stop  offset="1" style="stop-color:#1A0F91"/>
			</linearGradient>
			<path style="fill:url(#SVGID_00000049188898584223829990000001195084349042101690_);" d="M1701.886,1092.571h-61.553
				c-1.083,0-2.837,1.141-2.837,2.224v46.724c0,9.273,8.393,15.927,17.667,15.927h31.893c9.273,0,15.314-6.654,15.314-15.927
				v-46.724C1702.371,1093.711,1702.97,1092.571,1701.886,1092.571z"/>
		</g>
		<g style="opacity:0.7;">
			<path style="fill:#91B3FA;" d="M1361.176,893.525c-0.217,0-0.419-0.135-0.495-0.352c-0.094-0.272,0.05-0.571,0.323-0.667
				c24.236-8.429,36.198-23.773,33.68-43.2c-2.647-20.434,10.213-23.791,10.343-23.824c0.285-0.072,0.563,0.104,0.632,0.384
				c0.068,0.28-0.103,0.565-0.384,0.634c-0.495,0.121-12.073,3.209-9.552,22.671c2.587,19.973-9.62,35.713-34.376,44.325
				C1361.292,893.515,1361.234,893.525,1361.176,893.525z"/>
			<path style="fill:#91B3FA;" d="M1310.396,1045.867c-0.087,0-0.174-0.021-0.255-0.066c-27.767-15.423-44.121-34.065-48.61-55.408
				c-5.859-27.865,11.106-50.628,11.278-50.855c0.175-0.229,0.504-0.274,0.733-0.1c0.231,0.176,0.276,0.503,0.101,0.734
				c-0.169,0.223-16.851,22.626-11.084,50.016c4.427,21.03,20.607,39.433,48.091,54.696c0.253,0.141,0.344,0.46,0.203,0.712
				C1310.757,1045.771,1310.579,1045.867,1310.396,1045.867z"/>
		</g>
		<g>
			<path style="fill:#FFFFFF;" d="M949.981,1087.47c-0.24,0-0.482-0.077-0.686-0.236c-0.39-0.304-9.549-7.523-10.389-15.875
				c-0.328-3.253,0.646-6.231,2.893-8.852c1.452-1.694,3.067-3.099,4.629-4.457c4.298-3.738,7.405-6.438,4.729-12.53
				c-0.997-2.272-2.187-4.342-3.336-6.344c-3.886-6.768-7.558-13.161,1.398-21.501c0.451-0.422,1.161-0.395,1.581,0.056
				c0.422,0.452,0.396,1.16-0.056,1.581c-7.657,7.131-4.858,12.004-0.983,18.751c1.179,2.054,2.399,4.177,3.445,6.558
				c3.337,7.6-1.059,11.422-5.311,15.118c-1.501,1.305-3.053,2.655-4.399,4.224c-1.832,2.138-2.628,4.549-2.366,7.168
				c0.741,7.396,9.451,14.271,9.539,14.339c0.486,0.38,0.574,1.083,0.193,1.57C950.644,1087.321,950.314,1087.47,949.981,1087.47z"
				/>
			<path style="fill:#FFFFFF;" d="M965.64,1087.47c-0.24,0-0.482-0.077-0.686-0.236c-0.39-0.304-9.549-7.523-10.389-15.875
				c-0.328-3.253,0.646-6.231,2.893-8.852c1.452-1.694,3.067-3.099,4.629-4.457c4.298-3.738,7.405-6.438,4.729-12.53
				c-0.997-2.272-2.187-4.342-3.336-6.344c-3.886-6.768-7.558-13.161,1.398-21.501c0.451-0.422,1.161-0.395,1.581,0.056
				c0.422,0.452,0.396,1.16-0.056,1.581c-7.657,7.131-4.857,12.004-0.983,18.751c1.179,2.054,2.399,4.177,3.445,6.558
				c3.337,7.6-1.058,11.422-5.311,15.118c-1.501,1.305-3.053,2.655-4.399,4.224c-1.832,2.138-2.628,4.549-2.366,7.168
				c0.741,7.396,9.451,14.271,9.539,14.339c0.486,0.38,0.573,1.083,0.193,1.57C966.303,1087.321,965.973,1087.47,965.64,1087.47z"/>
			<path style="fill:#FFFFFF;" d="M981.299,1087.47c-0.24,0-0.482-0.077-0.686-0.236c-0.39-0.304-9.549-7.523-10.389-15.875
				c-0.328-3.253,0.646-6.231,2.893-8.852c1.452-1.694,3.067-3.099,4.629-4.457c4.298-3.738,7.405-6.438,4.729-12.53
				c-0.997-2.272-2.187-4.342-3.336-6.344c-3.886-6.768-7.558-13.161,1.398-21.501c0.451-0.422,1.16-0.395,1.581,0.056
				c0.422,0.452,0.397,1.16-0.056,1.581c-7.657,7.131-4.858,12.004-0.983,18.751c1.179,2.054,2.399,4.177,3.445,6.558
				c3.337,7.6-1.058,11.422-5.311,15.118c-1.501,1.305-3.053,2.655-4.399,4.224c-1.832,2.138-2.628,4.549-2.366,7.168
				c0.741,7.396,9.451,14.271,9.539,14.339c0.486,0.38,0.573,1.083,0.193,1.57C981.963,1087.321,981.633,1087.47,981.299,1087.47z"
				/>
		</g>
		<g>
			<path style="fill:#FFFFFF;" d="M1149.079,1087.47c-0.24,0-0.482-0.077-0.686-0.236c-0.39-0.304-9.549-7.523-10.389-15.875
				c-0.328-3.253,0.646-6.231,2.894-8.852c1.452-1.694,3.067-3.099,4.629-4.457c4.298-3.738,7.405-6.438,4.729-12.53
				c-0.997-2.272-2.187-4.342-3.336-6.344c-3.886-6.768-7.558-13.161,1.398-21.501c0.451-0.422,1.16-0.395,1.581,0.056
				c0.422,0.452,0.396,1.16-0.056,1.581c-7.657,7.131-4.857,12.004-0.983,18.751c1.179,2.054,2.399,4.177,3.445,6.558
				c3.337,7.6-1.058,11.422-5.311,15.118c-1.501,1.305-3.053,2.655-4.399,4.224c-1.832,2.138-2.628,4.549-2.366,7.168
				c0.741,7.396,9.451,14.271,9.539,14.339c0.486,0.38,0.573,1.083,0.193,1.57C1149.742,1087.321,1149.412,1087.47,1149.079,1087.47
				z"/>
			<path style="fill:#FFFFFF;" d="M1164.738,1087.47c-0.24,0-0.482-0.077-0.686-0.236c-0.39-0.304-9.549-7.523-10.389-15.875
				c-0.328-3.253,0.646-6.231,2.894-8.852c1.452-1.694,3.067-3.099,4.629-4.457c4.298-3.738,7.405-6.438,4.729-12.53
				c-0.997-2.272-2.187-4.342-3.336-6.344c-3.886-6.768-7.558-13.161,1.398-21.501c0.451-0.422,1.161-0.395,1.581,0.056
				c0.422,0.452,0.397,1.16-0.056,1.581c-7.657,7.131-4.858,12.004-0.983,18.751c1.179,2.054,2.399,4.177,3.445,6.558
				c3.337,7.6-1.059,11.422-5.311,15.118c-1.501,1.305-3.053,2.655-4.399,4.224c-1.832,2.138-2.628,4.549-2.366,7.168
				c0.741,7.396,9.451,14.271,9.539,14.339c0.486,0.38,0.574,1.083,0.193,1.57C1165.401,1087.321,1165.071,1087.47,1164.738,1087.47
				z"/>
			<path style="fill:#FFFFFF;" d="M1180.397,1087.47c-0.24,0-0.482-0.077-0.686-0.236c-0.39-0.304-9.549-7.523-10.389-15.875
				c-0.328-3.253,0.646-6.231,2.894-8.852c1.452-1.694,3.067-3.099,4.629-4.457c4.298-3.738,7.405-6.438,4.729-12.53
				c-0.997-2.272-2.187-4.342-3.336-6.344c-3.887-6.768-7.558-13.161,1.398-21.501c0.451-0.422,1.161-0.395,1.581,0.056
				c0.422,0.452,0.396,1.16-0.056,1.581c-7.657,7.131-4.858,12.004-0.983,18.751c1.179,2.054,2.399,4.177,3.445,6.558
				c3.337,7.6-1.058,11.422-5.311,15.118c-1.501,1.305-3.053,2.655-4.399,4.224c-1.832,2.138-2.628,4.549-2.366,7.168
				c0.74,7.396,9.451,14.271,9.539,14.339c0.486,0.38,0.573,1.083,0.193,1.57C1181.061,1087.321,1180.731,1087.47,1180.397,1087.47z
				"/>
		</g>
		<g>
			<path style="fill:#FFFFFF;" d="M1386.19,1087.47c-0.333,0-0.662-0.149-0.883-0.432c-0.38-0.487-0.293-1.189,0.193-1.57
				c0.089-0.068,8.799-6.943,9.539-14.339c0.262-2.618-0.534-5.03-2.366-7.168c-1.346-1.569-2.898-2.919-4.399-4.224
				c-4.252-3.695-8.648-7.517-5.311-15.118c1.046-2.382,2.266-4.506,3.445-6.559c3.875-6.746,6.673-11.62-0.983-18.75
				c-0.452-0.42-0.477-1.128-0.056-1.581c0.421-0.45,1.13-0.476,1.581-0.056c8.956,8.34,5.285,14.732,1.398,21.5
				c-1.149,2.002-2.339,4.073-3.336,6.345c-2.676,6.092,0.43,8.792,4.729,12.53c1.562,1.358,3.177,2.762,4.629,4.457
				c2.248,2.621,3.221,5.599,2.894,8.852c-0.84,8.352-9.999,15.571-10.389,15.875
				C1386.672,1087.392,1386.431,1087.47,1386.19,1087.47z"/>
			<path style="fill:#FFFFFF;" d="M1370.531,1087.47c-0.333,0-0.662-0.149-0.883-0.432c-0.38-0.487-0.293-1.189,0.193-1.57
				c0.089-0.068,8.799-6.943,9.539-14.339c0.262-2.618-0.534-5.03-2.366-7.168c-1.346-1.569-2.898-2.919-4.399-4.224
				c-4.252-3.695-8.648-7.517-5.311-15.118c1.046-2.382,2.267-4.506,3.445-6.559c3.874-6.746,6.673-11.62-0.983-18.75
				c-0.452-0.42-0.477-1.128-0.056-1.581c0.421-0.45,1.13-0.476,1.581-0.056c8.956,8.34,5.285,14.732,1.398,21.5
				c-1.149,2.002-2.339,4.073-3.336,6.345c-2.676,6.092,0.43,8.792,4.729,12.53c1.562,1.358,3.177,2.762,4.629,4.457
				c2.248,2.621,3.221,5.599,2.894,8.852c-0.84,8.352-9.999,15.571-10.389,15.875
				C1371.012,1087.392,1370.771,1087.47,1370.531,1087.47z"/>
			<path style="fill:#FFFFFF;" d="M1354.871,1087.47c-0.333,0-0.662-0.149-0.883-0.432c-0.38-0.487-0.293-1.189,0.193-1.57
				c0.088-0.068,8.798-6.943,9.539-14.339c0.262-2.618-0.534-5.03-2.366-7.168c-1.346-1.569-2.898-2.919-4.399-4.224
				c-4.252-3.695-8.648-7.517-5.311-15.118c1.047-2.382,2.267-4.506,3.445-6.559c3.875-6.746,6.673-11.62-0.983-18.75
				c-0.452-0.42-0.477-1.128-0.056-1.581c0.422-0.45,1.13-0.476,1.581-0.056c8.956,8.34,5.285,14.732,1.398,21.5
				c-1.149,2.002-2.339,4.073-3.336,6.345c-2.676,6.092,0.43,8.792,4.729,12.53c1.562,1.358,3.177,2.762,4.629,4.457
				c2.248,2.621,3.221,5.599,2.894,8.852c-0.84,8.352-9.999,15.571-10.389,15.875
				C1355.353,1087.392,1355.112,1087.47,1354.871,1087.47z"/>
		</g>
		<g>
			<path style="fill:#FFFFFF;" d="M1683.719,1087.47c-0.333,0-0.662-0.149-0.883-0.432c-0.38-0.487-0.293-1.189,0.193-1.57
				c0.089-0.068,8.799-6.943,9.539-14.339c0.262-2.618-0.534-5.03-2.366-7.168c-1.346-1.569-2.898-2.919-4.399-4.224
				c-4.252-3.695-8.648-7.517-5.311-15.118c1.046-2.382,2.266-4.506,3.445-6.559c3.875-6.746,6.673-11.62-0.983-18.75
				c-0.452-0.42-0.477-1.128-0.056-1.581c0.421-0.45,1.131-0.476,1.581-0.056c8.956,8.34,5.285,14.732,1.398,21.5
				c-1.149,2.002-2.339,4.073-3.336,6.345c-2.676,6.092,0.43,8.792,4.729,12.53c1.562,1.358,3.177,2.762,4.629,4.457
				c2.248,2.621,3.221,5.599,2.894,8.852c-0.84,8.352-9.999,15.571-10.389,15.875
				C1684.2,1087.392,1683.959,1087.47,1683.719,1087.47z"/>
			<path style="fill:#FFFFFF;" d="M1668.059,1087.47c-0.333,0-0.662-0.149-0.883-0.432c-0.38-0.487-0.293-1.189,0.193-1.57
				c0.089-0.068,8.799-6.943,9.539-14.339c0.262-2.618-0.534-5.03-2.366-7.168c-1.346-1.569-2.898-2.919-4.399-4.224
				c-4.252-3.695-8.648-7.517-5.311-15.118c1.046-2.382,2.266-4.506,3.445-6.559c3.875-6.746,6.673-11.62-0.983-18.75
				c-0.452-0.42-0.477-1.128-0.056-1.581c0.421-0.45,1.131-0.476,1.581-0.056c8.956,8.34,5.285,14.732,1.398,21.5
				c-1.149,2.002-2.339,4.073-3.336,6.345c-2.676,6.092,0.43,8.792,4.729,12.53c1.562,1.358,3.177,2.762,4.629,4.457
				c2.248,2.621,3.221,5.599,2.894,8.852c-0.84,8.352-9.999,15.571-10.389,15.875
				C1668.541,1087.392,1668.3,1087.47,1668.059,1087.47z"/>
			<path style="fill:#FFFFFF;" d="M1652.4,1087.47c-0.333,0-0.662-0.149-0.883-0.432c-0.38-0.487-0.293-1.189,0.193-1.57
				c0.089-0.068,8.799-6.943,9.539-14.339c0.262-2.618-0.534-5.03-2.366-7.168c-1.346-1.569-2.898-2.919-4.399-4.224
				c-4.252-3.695-8.648-7.517-5.311-15.118c1.046-2.382,2.266-4.506,3.445-6.559c3.875-6.746,6.673-11.62-0.983-18.75
				c-0.452-0.42-0.477-1.128-0.056-1.581c0.421-0.45,1.13-0.476,1.581-0.056c8.956,8.34,5.285,14.732,1.398,21.5
				c-1.149,2.002-2.339,4.073-3.336,6.345c-2.676,6.092,0.43,8.792,4.729,12.53c1.562,1.358,3.177,2.762,4.629,4.457
				c2.248,2.621,3.221,5.599,2.894,8.852c-0.84,8.352-9.999,15.571-10.389,15.875C1652.881,1087.392,1652.64,1087.47,1652.4,1087.47
				z"/>
		</g>
		<path style="fill:#91B3FA;" d="M1572.99,407.316c-68.637,5.669-144.424,45.564-155.151,119.517
			c-9.121,62.887,56.015,99.604,96.731,117.385c11.356,4.959,20.488,13.904,25.711,25.142c12.498,26.893,42.07,74.052,91.802,61.237
			c3.622-0.934,3.508-6.144-0.14-6.968c-11.608-2.618-27.468-8.634-35.673-22.397c-11.177-18.746,1.121-42.788,22.776-45.506
			c40.981-5.144,121.675-27.417,137.472-122.604C1777.883,404.39,1572.99,407.316,1572.99,407.316z"/>
		<path style="opacity:0.6;fill:#FFFFFF;" d="M1456.784,481.831c-0.963,0-1.933-0.309-2.751-0.948
			c-1.947-1.522-2.292-4.333-0.771-6.281c38.002-48.634,100.247-58.144,145.791-57.545c2.471,0.033,4.448,2.061,4.416,4.532
			c-0.034,2.471-2.125,4.478-4.532,4.416c-43.536-0.567-102.88,8.361-138.623,54.107
			C1459.431,481.241,1458.115,481.831,1456.784,481.831z"/>
		<path style="opacity:0.6;fill:#FFFFFF;" d="M1432.648,535.266c-0.177,0-0.354-0.01-0.533-0.032
			c-2.451-0.292-4.203-2.509-3.916-4.96c0.04-0.342,1.032-8.509,5.391-20.361c0.853-2.318,3.422-3.511,5.743-2.654
			c2.319,0.852,3.507,3.423,2.654,5.743c-3.962,10.773-4.892,18.247-4.902,18.321
			C1436.812,533.594,1434.881,535.266,1432.648,535.266z"/>
		<path style="fill:#BDD0FB;" d="M1718.03,483.275c0,2.922-2.369,5.291-5.291,5.291h-213.124c-2.922,0-5.291-2.369-5.291-5.291
			v-0.604c0-2.922,2.369-5.291,5.291-5.291h213.124c2.922,0,5.291,2.369,5.291,5.291V483.275z"/>
		<path style="fill:#BDD0FB;" d="M1702.371,593.46c0,2.776-0.466,4.722-3.198,4.722h-199.271c-2.732,0-5.577-1.946-5.577-4.722
			v-0.573c0-2.776,2.845-5.89,5.577-5.89h199.271c2.732,0,3.198,3.114,3.198,5.89V593.46z"/>
		<path style="fill:#BDD0FB;" d="M1720.267,522.702c0,3.171-2.014,3.894-5.228,3.894h-234.399c-3.214,0-6.45-0.724-6.45-3.894
			v-0.655c0-3.17,3.236-6.636,6.45-6.636h234.399c3.214,0,5.228,3.466,5.228,6.636V522.702z"/>
		<path style="fill:#BDD0FB;" d="M1720.267,556.258c0,3.17-2.014,3.894-5.228,3.894h-234.399c-3.214,0-6.45-0.724-6.45-3.894v-0.655
			c0-3.171,3.236-6.636,6.45-6.636h234.399c3.214,0,5.228,3.466,5.228,6.636V556.258z"/>
		<g>
			<path style="fill:#FFFFFF;" d="M2032.383,1270.781l3.829-10.513c0.257-0.707,1.038-1.072,1.745-0.815
				c0.707,0.257,1.072,1.038,0.816,1.745l-0.006,0.015l-3.942,10.471c-0.253,0.673-1.003,1.014-1.676,0.761
				C2032.481,1272.194,2032.141,1271.45,2032.383,1270.781z"/>
			<path style="fill:#FFFFFF;" d="M2041.247,1243.283l2.387-10.93c0.178-0.82,0.987-1.341,1.807-1.163
				c0.82,0.178,1.341,0.986,1.163,1.807l-0.004,0.019l-2.505,10.903c-0.179,0.786-0.961,1.277-1.747,1.098
				C2041.568,1244.839,2041.078,1244.063,2041.247,1243.283z"/>
			<path style="fill:#FFFFFF;" d="M2045.81,1214.914l0.153-11.181c0.01-0.926,0.769-1.668,1.695-1.658
				c0.926,0.01,1.668,0.769,1.657,1.695l0,0.022l-0.274,11.179c-0.02,0.892-0.759,1.6-1.651,1.58
				C2046.504,1216.532,2045.8,1215.798,2045.81,1214.914z"/>
			<path style="fill:#FFFFFF;" d="M2043.825,1186.439c0,0-0.689-2.708-1.379-5.417c-0.837-2.572-1.675-5.144-1.675-5.144
				l-0.038-0.118c-0.313-0.963,0.213-1.997,1.176-2.311c0.963-0.313,1.997,0.213,2.311,1.175c0.001,0.004,0.006,0.017,0.006,0.021
				c0,0,0.861,2.753,1.721,5.505c0.66,2.715,1.32,5.431,1.32,5.431c0.232,0.952-0.352,1.911-1.304,2.143
				C2045.019,1187.955,2044.066,1187.379,2043.825,1186.439z"/>
			<path style="fill:#FFFFFF;" d="M2033.079,1160.294c0,0-1.59-2.299-3.18-4.598c-1.682-2.107-3.363-4.215-3.363-4.215l-0.082-0.102
				c-0.686-0.859-0.545-2.112,0.314-2.797c0.859-0.686,2.112-0.545,2.797,0.314c0.003,0.003,0.012,0.015,0.015,0.019
				c0,0,1.778,2.284,3.556,4.569c1.565,2.316,3.13,4.632,3.13,4.632c0.597,0.884,0.365,2.084-0.519,2.681
				C2034.871,1161.389,2033.68,1161.163,2033.079,1160.294z"/>
			<path style="fill:#FFFFFF;" d="M2014.02,1139.429l-9.087-6.505c-0.965-0.691-1.187-2.033-0.496-2.998
				c0.691-0.965,2.033-1.187,2.998-0.497l0.023,0.017l9.016,6.603c0.93,0.681,1.132,1.988,0.451,2.918
				C2016.248,1139.891,2014.949,1140.093,2014.02,1139.429z"/>
			<path style="fill:#FFFFFF;" d="M1989.68,1124.535l-10.276-4.413c-1.17-0.502-1.711-1.859-1.209-3.028
				c0.502-1.17,1.858-1.712,3.028-1.209l0.027,0.012l10.228,4.524c1.134,0.502,1.647,1.828,1.145,2.962
				C1992.125,1124.508,1990.809,1125.019,1989.68,1124.535z"/>
			<path style="fill:#FFFFFF;" d="M1962.786,1114.48l-10.802-2.901c-1.314-0.353-2.093-1.704-1.74-3.018
				c0.353-1.314,1.704-2.093,3.018-1.74l0.028,0.008l10.77,3.018c1.278,0.358,2.023,1.684,1.665,2.962
				C1965.37,1114.078,1964.056,1114.821,1962.786,1114.48z"/>
			<path style="fill:#FFFFFF;" d="M1934.72,1107.92l-11.035-1.822c-1.428-0.236-2.394-1.584-2.158-3.012
				c0.236-1.428,1.584-2.394,3.012-2.159l0.029,0.005l11.015,1.941c1.392,0.245,2.322,1.573,2.077,2.965
				C1937.416,1107.221,1936.101,1108.147,1934.72,1107.92z"/>
			<path style="fill:#FFFFFF;" d="M1906.127,1103.886l-11.133-1.028c-1.527-0.141-2.652-1.494-2.51-3.021
				c0.141-1.528,1.494-2.652,3.021-2.511l0.031,0.003l11.121,1.149c1.493,0.154,2.578,1.489,2.424,2.982
				C1908.928,1102.943,1907.608,1104.023,1906.127,1103.886z"/>
			<path style="fill:#FFFFFF;" d="M1877.285,1101.734l-11.171-0.445c-1.608-0.064-2.86-1.42-2.796-3.028
				c0.064-1.608,1.42-2.86,3.028-2.796l0.021,0.001l11.168,0.525c1.586,0.075,2.811,1.421,2.736,3.006
				C1880.198,1100.576,1878.861,1101.797,1877.285,1101.734z"/>
			<path style="fill:#FFFFFF;" d="M1848.356,1100.969l-11.182,0.022c-1.658,0.003-3.005-1.339-3.009-2.997
				c-0.003-1.658,1.338-3.005,2.997-3.009h0.019l11.182,0.046c1.64,0.007,2.964,1.341,2.957,2.981
				C1851.312,1099.645,1849.986,1100.965,1848.356,1100.969z"/>
			<path style="fill:#FFFFFF;" d="M1819.385,1101.344l-11.18,0.403c-1.706,0.061-3.139-1.272-3.2-2.978
				c-0.062-1.706,1.272-3.139,2.978-3.2l0.019-0.001l11.182-0.335c1.688-0.051,3.097,1.277,3.147,2.964
				C1822.382,1099.878,1821.064,1101.283,1819.385,1101.344z"/>
			<path style="fill:#FFFFFF;" d="M1790.419,1102.647l-11.17,0.714c-1.753,0.112-3.264-1.218-3.376-2.97
				c-0.112-1.752,1.218-3.264,2.97-3.376l0.02-0.001l11.174-0.646c1.735-0.1,3.222,1.224,3.322,2.959
				C1793.459,1101.053,1792.143,1102.536,1790.419,1102.647z"/>
			<path style="fill:#FFFFFF;" d="M1761.477,1104.712l-11.143,0.97c-1.798,0.157-3.383-1.174-3.539-2.973
				c-0.156-1.798,1.174-3.383,2.973-3.539l0.02-0.002l11.149-0.902c1.78-0.144,3.34,1.182,3.484,2.963
				C1764.564,1103.003,1763.246,1104.557,1761.477,1104.712z"/>
			<path style="fill:#FFFFFF;" d="M1732.581,1107.403l-11.123,1.179c-1.844,0.195-3.497-1.141-3.692-2.984
				c-0.195-1.844,1.141-3.496,2.984-3.692l0.021-0.002l11.13-1.111c1.826-0.182,3.454,1.15,3.636,2.976
				C1735.719,1105.588,1734.396,1107.21,1732.581,1107.403z"/>
			<path style="fill:#FFFFFF;" d="M1703.724,1110.603l-11.105,1.343c-1.889,0.228-3.605-1.118-3.834-3.007
				c-0.228-1.889,1.118-3.605,3.007-3.833l0.021-0.003l11.113-1.275c1.871-0.214,3.563,1.129,3.777,3
				C1706.918,1108.692,1705.585,1110.377,1703.724,1110.603z"/>
			<path style="fill:#FFFFFF;" d="M1674.895,1114.188l-11.092,1.451c-1.935,0.253-3.709-1.111-3.962-3.046
				c-0.253-1.935,1.11-3.709,3.046-3.962l0.022-0.003l11.101-1.383c1.918-0.239,3.666,1.122,3.905,3.04
				C1678.152,1112.196,1676.801,1113.939,1674.895,1114.188z"/>
			<path style="fill:#FFFFFF;" d="M1646.058,1117.993l-11.091,1.456c-1.983,0.26-3.802-1.137-4.063-3.12
				c-0.26-1.983,1.136-3.802,3.12-4.062l0.024-0.003l11.1-1.388c1.966-0.246,3.76,1.149,4.005,3.115
				C1649.399,1115.949,1648.012,1117.736,1646.058,1117.993z"/>
			<path style="fill:#FFFFFF;" d="M1617.156,1121.66l-11.109,1.292c-2.036,0.237-3.878-1.222-4.114-3.257
				c-0.237-2.036,1.222-3.877,3.257-4.114l0.022-0.003l11.117-1.224c2.018-0.222,3.835,1.233,4.057,3.252
				C1620.607,1119.616,1619.162,1121.426,1617.156,1121.66z"/>
			<path style="fill:#FFFFFF;" d="M1588.2,1124.89l-11.128,1.124c-2.088,0.211-3.951-1.311-4.162-3.398
				c-0.211-2.087,1.31-3.951,3.398-4.161l0.023-0.002l11.135-1.056c2.07-0.197,3.907,1.322,4.104,3.392
				C1591.765,1122.85,1590.258,1124.682,1588.2,1124.89z"/>
			<path style="fill:#FFFFFF;" d="M1559.197,1127.685l-11.144,0.959c-2.139,0.184-4.022-1.401-4.206-3.54
				c-0.184-2.139,1.401-4.022,3.54-4.206l0.024-0.002l11.149-0.891c2.121-0.169,3.979,1.413,4.148,3.534
				C1562.877,1125.652,1561.306,1127.503,1559.197,1127.685z"/>
			<path style="fill:#FFFFFF;" d="M1530.155,1130.051l-11.157,0.795c-2.191,0.156-4.093-1.493-4.249-3.683
				c-0.156-2.19,1.493-4.092,3.683-4.248l0.024-0.002l11.162-0.727c2.172-0.141,4.048,1.505,4.19,3.677
				C1533.949,1128.026,1532.315,1129.896,1530.155,1130.051z"/>
			<path style="fill:#FFFFFF;" d="M1501.079,1131.957l-11.169,0.61c-2.209,0.121-4.099-1.573-4.22-3.782
				c-0.121-2.21,1.573-4.099,3.782-4.22l0.008,0l11.17-0.588c2.204-0.116,4.084,1.576,4.2,3.78
				C1504.967,1129.961,1503.282,1131.841,1501.079,1131.957z"/>
			<path style="fill:#FFFFFF;" d="M1471.976,1133.419l-11.167,0.45c-2.227,0.09-4.105-1.643-4.195-3.87
				c-0.09-2.227,1.643-4.106,3.87-4.195l0.008,0l11.168-0.428c2.221-0.085,4.091,1.647,4.176,3.868
				C1475.921,1131.465,1474.198,1133.334,1471.976,1133.419z"/>
			<path style="fill:#FFFFFF;" d="M1442.866,1134.465l-11.188,0.292c-2.244,0.059-4.112-1.713-4.17-3.958
				c-0.059-2.245,1.713-4.111,3.958-4.17l0.008,0l11.189-0.27c2.238-0.054,4.097,1.717,4.151,3.955
				S1445.105,1134.411,1442.866,1134.465z"/>
			<path style="fill:#FFFFFF;" d="M1413.728,1135.1l-11.184,0.135c-2.261,0.027-4.117-1.784-4.144-4.045
				c-0.028-2.261,1.784-4.116,4.045-4.144h0.008l11.185-0.113c2.255-0.023,4.102,1.787,4.124,4.042
				C1417.784,1133.231,1415.983,1135.078,1413.728,1135.1z"/>
			<path style="fill:#FFFFFF;" d="M1384.59,1135.327l-11.185-0.02c-2.277-0.004-4.12-1.854-4.116-4.131
				c0.004-2.278,1.854-4.12,4.131-4.116h0.009l11.185,0.043c2.271,0.009,4.105,1.857,4.097,4.128
				C1388.701,1133.502,1386.861,1135.336,1384.59,1135.327z"/>
			<path style="fill:#FFFFFF;" d="M1355.452,1135.15l-11.184-0.175c-2.293-0.036-4.123-1.924-4.088-4.218
				c0.036-2.293,1.924-4.124,4.218-4.088h0.008l11.184,0.198c2.287,0.041,4.108,1.927,4.068,4.214
				C1359.618,1133.369,1357.739,1135.19,1355.452,1135.15z"/>
			<path style="fill:#FFFFFF;" d="M1326.319,1134.57l-11.18-0.328c-2.309-0.068-4.126-1.995-4.058-4.303
				c0.068-2.309,1.995-4.126,4.303-4.058l0.008,0l11.18,0.351c2.302,0.072,4.11,1.997,4.038,4.3S1328.622,1134.643,1326.319,1134.57
				z"/>
			<path style="fill:#FFFFFF;" d="M1297.197,1133.592l-11.175-0.481c-2.324-0.1-4.127-2.065-4.027-4.389
				c0.1-2.324,2.065-4.127,4.389-4.026l0.008,0l11.174,0.504c2.317,0.104,4.111,2.068,4.007,4.385
				C1301.469,1131.902,1299.514,1133.696,1297.197,1133.592z"/>
			<path style="fill:#FFFFFF;" d="M1268.09,1132.216l-11.167-0.633c-2.339-0.132-4.127-2.136-3.994-4.474
				c0.132-2.338,2.136-4.126,4.474-3.994l0.008,0l11.166,0.656c2.332,0.137,4.111,2.138,3.975,4.47
				C1272.415,1130.573,1270.422,1132.353,1268.09,1132.216z"/>
			<path style="fill:#FFFFFF;" d="M1239.005,1130.445l-11.158-0.784c-2.353-0.165-4.125-2.207-3.96-4.559
				c0.166-2.352,2.207-4.126,4.559-3.96l0.009,0l11.156,0.807c2.346,0.17,4.11,2.209,3.94,4.555
				C1243.382,1128.85,1241.351,1130.614,1239.005,1130.445z"/>
			<path style="fill:#FFFFFF;" d="M1209.946,1128.28l-11.146-0.936c-2.366-0.198-4.123-2.278-3.925-4.644
				c0.199-2.366,2.278-4.123,4.644-3.925l0.009,0.001l11.144,0.958c2.359,0.203,4.108,2.28,3.905,4.64
				C1214.374,1126.733,1212.305,1128.482,1209.946,1128.28z"/>
			<path style="fill:#FFFFFF;" d="M1180.918,1125.722l-11.133-1.086c-2.379-0.232-4.12-2.349-3.888-4.728
				c0.232-2.38,2.349-4.12,4.729-3.888l0.009,0.001l11.13,1.109c2.373,0.236,4.104,2.351,3.868,4.724
				C1185.398,1124.225,1183.291,1125.958,1180.918,1125.722z"/>
			<path style="fill:#FFFFFF;" d="M1151.928,1122.771l-11.117-1.236c-2.392-0.266-4.116-2.421-3.85-4.813
				c0.266-2.392,2.421-4.116,4.813-3.849l0.009,0.001l11.114,1.259c2.385,0.27,4.1,2.423,3.83,4.808
				C1156.457,1121.326,1154.313,1123.042,1151.928,1122.771z"/>
			<path style="fill:#FFFFFF;" d="M1122.979,1119.43l-11.099-1.387c-2.404-0.3-4.11-2.493-3.809-4.897
				c0.3-2.404,2.493-4.11,4.897-3.809l0.009,0.001l11.096,1.409c2.397,0.304,4.094,2.495,3.79,4.892
				S1125.377,1119.734,1122.979,1119.43z"/>
			<path style="fill:#FFFFFF;" d="M1094.078,1115.696l-11.079-1.537c-2.416-0.335-4.103-2.565-3.768-4.981
				c0.335-2.416,2.566-4.103,4.982-3.768l0.009,0.001l11.076,1.56c2.409,0.339,4.087,2.567,3.748,4.976
				C1098.707,1114.356,1096.487,1116.035,1094.078,1115.696z"/>
			<path style="fill:#FFFFFF;" d="M1065.23,1111.57l-11.057-1.688c-2.427-0.37-4.094-2.638-3.724-5.066s2.638-4.094,5.066-3.724
				l0.009,0.001l11.054,1.71c2.42,0.374,4.079,2.64,3.704,5.06C1069.907,1110.285,1067.65,1111.944,1065.23,1111.57z"/>
			<path style="fill:#FFFFFF;" d="M1036.44,1107.051l-11.033-1.84c-2.437-0.407-4.083-2.711-3.676-5.149
				c0.407-2.437,2.711-4.083,5.148-3.676l0.007,0.001l11.03,1.859c2.431,0.41,4.069,2.713,3.66,5.144
				C1041.166,1105.821,1038.871,1107.461,1036.44,1107.051z"/>
			<path style="fill:#FFFFFF;" d="M1007.72,1102.102l-11.003-2.012c-2.415-0.442-4.014-2.757-3.573-5.172
				c0.442-2.415,2.748-4.016,5.163-3.574l11.007,1.991c2.422,0.438,4.03,2.756,3.592,5.177c-0.438,2.422-2.756,4.03-5.178,3.592
				L1007.72,1102.102z"/>
			<path style="fill:#FFFFFF;" d="M979.075,1096.736l-10.974-2.164c-2.393-0.472-3.95-2.795-3.478-5.187
				c0.472-2.393,2.786-3.952,5.179-3.48l10.978,2.143c2.4,0.469,3.965,2.794,3.497,5.193c-0.469,2.4-2.793,3.965-5.193,3.497
				L979.075,1096.736z"/>
			<path style="fill:#FFFFFF;" d="M950.508,1090.974l-10.943-2.317c-2.371-0.502-3.885-2.831-3.383-5.201
				c0.502-2.37,2.823-3.887,5.193-3.385l10.947,2.296c2.377,0.499,3.9,2.83,3.402,5.208c-0.499,2.377-2.83,3.901-5.208,3.402
				L950.508,1090.974z"/>
			<path style="fill:#FFFFFF;" d="M922.023,1084.813l-10.915-2.473c-2.348-0.532-3.82-2.867-3.288-5.215
				c0.532-2.348,2.858-3.822,5.206-3.29l10.92,2.452c2.355,0.528,3.835,2.866,3.307,5.221c-0.529,2.355-2.866,3.835-5.221,3.307
				L922.023,1084.813z"/>
			<path style="fill:#FFFFFF;" d="M893.637,1078.259l-10.882-2.586c-2.327-0.553-3.765-2.887-3.212-5.214
				c0.553-2.327,2.88-3.767,5.206-3.214l10.887,2.564c2.334,0.55,3.78,2.887,3.23,5.221c-0.55,2.334-2.887,3.78-5.221,3.23
				L893.637,1078.259z"/>
			<path style="fill:#FFFFFF;" d="M865.329,1071.473l-10.864-2.661c-2.308-0.565-3.72-2.894-3.155-5.202
				c0.565-2.308,2.886-3.722,5.194-3.157l10.869,2.639c2.315,0.562,3.735,2.894,3.173,5.209c-0.562,2.315-2.894,3.735-5.209,3.174
				L865.329,1071.473z"/>
			<path style="fill:#FFFFFF;" d="M837.063,1064.473l-10.841-2.756c-2.287-0.582-3.67-2.907-3.088-5.195
				c0.582-2.287,2.899-3.672,5.187-3.09l10.846,2.735c2.294,0.578,3.685,2.908,3.107,5.202c-0.578,2.294-2.907,3.685-5.202,3.107
				L837.063,1064.473z"/>
			<path style="fill:#FFFFFF;" d="M808.862,1057.208l-10.818-2.874c-2.266-0.602-3.614-2.927-3.012-5.193
				c0.602-2.266,2.919-3.617,5.185-3.015l10.823,2.853c2.273,0.599,3.63,2.927,3.031,5.2c-0.599,2.273-2.927,3.629-5.2,3.03
				L808.862,1057.208z"/>
			<path style="fill:#FFFFFF;" d="M780.724,1049.619l-10.773-3.009c-2.243-0.626-3.553-2.952-2.927-5.195
				c0.626-2.243,2.945-3.555,5.187-2.929l10.779,2.988c2.25,0.623,3.568,2.953,2.944,5.203c-0.623,2.25-2.953,3.568-5.202,2.945
				L780.724,1049.619z"/>
			<path style="fill:#FFFFFF;" d="M752.69,1041.658l-10.728-3.166c-2.218-0.655-3.486-2.983-2.831-5.202
				c0.654-2.218,2.976-3.488,5.194-2.833l10.734,3.144c2.226,0.652,3.501,2.984,2.849,5.21c-0.652,2.225-2.984,3.501-5.21,2.849
				L752.69,1041.658z"/>
			<path style="fill:#FFFFFF;" d="M724.772,1033.269l-10.674-3.343c-2.192-0.686-3.412-3.02-2.726-5.212
				c0.687-2.192,3.013-3.415,5.204-2.728l10.681,3.322c2.199,0.684,3.427,3.021,2.743,5.22c-0.684,2.199-3.021,3.427-5.22,2.743
				L724.772,1033.269z"/>
			<path style="fill:#FFFFFF;" d="M696.996,1024.399l-10.61-3.541c-2.164-0.722-3.332-3.062-2.61-5.226
				c0.722-2.164,3.054-3.335,5.218-2.613l10.617,3.52c2.171,0.72,3.347,3.063,2.628,5.234c-0.72,2.171-3.063,3.347-5.234,2.627
				L696.996,1024.399z"/>
			<path style="fill:#FFFFFF;" d="M669.387,1014.992l-10.534-3.76c-2.134-0.762-3.246-3.109-2.484-5.242
				c0.761-2.133,3.101-3.248,5.235-2.487l10.542,3.739c2.141,0.759,3.261,3.11,2.501,5.251c-0.759,2.141-3.11,3.261-5.251,2.501
				L669.387,1014.992z"/>
			<path style="fill:#FFFFFF;" d="M641.979,1004.996l-10.446-3.999c-2.101-0.805-3.152-3.16-2.348-5.261
				c0.805-2.101,3.152-3.155,5.253-2.35l10.454,3.979c2.108,0.802,3.167,3.162,2.364,5.27c-0.802,2.108-3.162,3.167-5.27,2.364
				L641.979,1004.996z"/>
			<path style="fill:#FFFFFF;" d="M614.804,994.356l-10.342-4.259c-2.066-0.85-3.051-3.215-2.2-5.28
				c0.85-2.065,3.208-3.053,5.273-2.203l10.351,4.239c2.073,0.849,3.065,3.218,2.216,5.29c-0.849,2.073-3.218,3.065-5.29,2.216
				L614.804,994.356z"/>
			<path style="fill:#FFFFFF;" d="M587.905,983.019l-10.223-4.539c-2.027-0.9-2.941-3.273-2.041-5.3
				c0.9-2.027,3.266-2.944,5.294-2.044l10.232,4.519c2.035,0.899,2.956,3.276,2.057,5.311c-0.899,2.035-3.276,2.956-5.311,2.057
				L587.905,983.019z"/>
			<path style="fill:#FFFFFF;" d="M561.325,970.932l-10.091-4.841c-1.986-0.953-2.823-3.335-1.871-5.32
				c0.953-1.986,3.328-2.826,5.313-1.874l10.101,4.821c1.993,0.951,2.837,3.338,1.886,5.331c-0.951,1.993-3.338,2.837-5.331,1.886
				L561.325,970.932z"/>
			<path style="fill:#FFFFFF;" d="M535.11,958.027l-9.918-5.175c-1.919-1.002-2.664-3.37-1.662-5.289
				c0.998-1.912,3.353-2.657,5.269-1.672l9.949,5.116c1.942,0.999,2.706,3.382,1.708,5.324c-0.999,1.942-3.382,2.706-5.324,1.708
				L535.11,958.027z"/>
			<path style="fill:#FFFFFF;" d="M509.35,944.246l-9.735-5.508c-1.843-1.042-2.492-3.381-1.449-5.224
				c1.038-1.836,3.365-2.486,5.205-1.46l9.768,5.45c1.865,1.041,2.534,3.396,1.493,5.261c-1.04,1.865-3.396,2.534-5.261,1.493
				L509.35,944.246z"/>
			<path style="fill:#FFFFFF;" d="M484.043,929.388l-9.33-6.172c-1.726-1.142-2.2-3.467-1.058-5.193
				c1.138-1.72,3.452-2.194,5.176-1.069l9.366,6.117c1.748,1.142,2.24,3.485,1.098,5.233c-1.142,1.748-3.484,2.24-5.233,1.098
				L484.043,929.388z"/>
			<path style="fill:#FFFFFF;" d="M459.983,912.342l-8.599-7.154c-1.554-1.293-1.766-3.602-0.473-5.156
				c1.288-1.549,3.588-1.762,5.142-0.485l8.642,7.103c1.576,1.296,1.804,3.624,0.508,5.2c-1.296,1.576-3.624,1.804-5.2,0.508
				L459.983,912.342z"/>
			<path style="fill:#FFFFFF;" d="M438.05,892.487l-7.491-8.307c-1.322-1.466-1.206-3.727,0.261-5.049
				c1.461-1.317,3.713-1.203,5.037,0.248l7.54,8.262c1.343,1.472,1.239,3.754-0.233,5.097c-1.472,1.343-3.754,1.239-5.097-0.233
				L438.05,892.487z"/>
			<path style="fill:#FFFFFF;" d="M419.383,869.373l-5.841-9.538c-1.006-1.643-0.49-3.791,1.153-4.797
				c1.637-1.003,3.777-0.49,4.788,1.138l5.898,9.503c1.025,1.652,0.517,3.823-1.135,4.849c-1.653,1.026-3.824,0.518-4.85-1.135
				L419.383,869.373z"/>
			<path style="fill:#FFFFFF;" d="M405.566,842.975l-3.594-10.59c-0.604-1.779,0.349-3.711,2.128-4.315
				c1.772-0.602,3.697,0.344,4.309,2.11l3.657,10.568c0.62,1.793-0.33,3.749-2.123,4.37c-1.793,0.62-3.749-0.33-4.37-2.123
				L405.566,842.975z"/>
			<path style="fill:#FFFFFF;" d="M398.103,814.117l-1.013-11.134c-0.167-1.824,1.176-3.437,3-3.604
				c1.817-0.166,3.425,1.169,3.603,2.982l1.079,11.128c0.18,1.841-1.167,3.479-3.008,3.658c-1.841,0.18-3.479-1.167-3.658-3.008
				L398.103,814.117z"/>
			<path style="fill:#FFFFFF;" d="M397.481,784.398l1.4-11.093c0.221-1.77,1.836-3.025,3.605-2.803
				c1.763,0.221,3.015,1.828,2.805,3.59l-1.334,11.101c-0.213,1.789-1.836,3.067-3.626,2.854c-1.789-0.213-3.067-1.836-2.854-3.626
				L397.481,784.398z"/>
			<path style="fill:#FFFFFF;" d="M402.88,755.292l3.328-10.677c0.515-1.658,2.276-2.584,3.934-2.069
				c1.651,0.513,2.576,2.267,2.074,3.919l-3.265,10.697c-0.51,1.678-2.285,2.625-3.963,2.115c-1.678-0.51-2.625-2.285-2.115-3.963
				L402.88,755.292z"/>
			<path style="fill:#FFFFFF;" d="M412.915,727.563l4.756-10.12c0.717-1.528,2.537-2.186,4.065-1.469
				c1.523,0.714,2.18,2.526,1.476,4.051l-4.696,10.148c-0.716,1.549-2.551,2.225-4.101,1.51c-1.549-0.716-2.225-2.552-1.51-4.101
				L412.915,727.563z"/>
			<path style="fill:#FFFFFF;" d="M426.329,701.417l5.795-9.554c0.85-1.403,2.677-1.852,4.08-1.001
				c1.398,0.847,1.847,2.665,1.01,4.066l-5.738,9.589c-0.851,1.424-2.695,1.888-4.119,1.037c-1.424-0.851-1.888-2.695-1.037-4.119
				L426.329,701.417z"/>
			<path style="fill:#FFFFFF;" d="M442.2,676.778l6.577-9.047c0.935-1.287,2.737-1.573,4.024-0.638
				c1.282,0.931,1.569,2.724,0.648,4.01l-6.518,9.09c-0.939,1.31-2.761,1.611-4.071,0.672c-1.31-0.938-1.61-2.761-0.672-4.07
				L442.2,676.778z"/>
			<path style="fill:#FFFFFF;" d="M459.943,653.507l7.183-8.572c0.967-1.155,2.688-1.307,3.842-0.34
				c1.147,0.961,1.303,2.666,0.358,3.821l-7.092,8.647c-0.976,1.19-2.732,1.364-3.922,0.388c-1.19-0.975-1.364-2.731-0.389-3.922
				L459.943,653.507z"/>
			<path style="fill:#FFFFFF;" d="M479.105,631.447l7.645-8.163c0.972-1.038,2.601-1.091,3.638-0.12
				c1.031,0.965,1.089,2.58,0.138,3.619l-7.558,8.243c-0.983,1.072-2.648,1.145-3.72,0.162c-1.072-0.983-1.145-2.648-0.162-3.72
				L479.105,631.447z"/>
			<path style="fill:#FFFFFF;" d="M499.374,610.44l8.018-7.798c0.958-0.932,2.491-0.911,3.423,0.047
				c0.926,0.952,0.91,2.471-0.029,3.405l-7.935,7.882c-0.972,0.965-2.542,0.96-3.507-0.011c-0.965-0.971-0.96-2.542,0.011-3.507
				L499.374,610.44z"/>
			<path style="fill:#FFFFFF;" d="M520.548,590.369l8.328-7.468c0.932-0.836,2.365-0.758,3.201,0.174
				c0.83,0.926,0.758,2.347-0.156,3.185l-8.248,7.556c-0.947,0.868-2.419,0.803-3.286-0.144c-0.868-0.947-0.803-2.419,0.144-3.286
				L520.548,590.369z"/>
			<path style="fill:#FFFFFF;" d="M542.481,571.144l8.593-7.165c0.896-0.748,2.229-0.627,2.977,0.269
				c0.742,0.89,0.627,2.212-0.253,2.962l-8.517,7.256c-0.913,0.778-2.284,0.669-3.063-0.245c-0.778-0.913-0.669-2.284,0.245-3.063
				L542.481,571.144z"/>
			<path style="fill:#FFFFFF;" d="M565.069,552.699l8.825-6.882c0.853-0.666,2.085-0.513,2.751,0.34
				c0.661,0.848,0.515,2.07-0.324,2.738l-8.752,6.974c-0.872,0.695-2.142,0.552-2.837-0.32c-0.695-0.872-0.552-2.142,0.32-2.837
				L565.069,552.699z"/>
			<path style="fill:#FFFFFF;" d="M588.223,534.996l9.035-6.609c0.805-0.589,1.935-0.414,2.525,0.391
				c0.585,0.8,0.415,1.921-0.376,2.513l-8.964,6.704c-0.825,0.617-1.994,0.448-2.611-0.377c-0.617-0.825-0.448-1.994,0.377-2.611
				L588.223,534.996z"/>
			<path style="fill:#FFFFFF;" d="M611.901,518.006l9.229-6.338c0.753-0.517,1.781-0.326,2.298,0.427
				c0.513,0.747,0.328,1.768-0.412,2.288l-9.162,6.435c-0.774,0.543-1.841,0.357-2.385-0.417c-0.544-0.774-0.357-1.841,0.417-2.385
				L611.901,518.006z"/>
			<path style="fill:#FFFFFF;" d="M636.075,501.732l9.418-6.055c0.696-0.448,1.624-0.246,2.072,0.45
				c0.445,0.692,0.248,1.612-0.437,2.063l-9.353,6.154c-0.719,0.473-1.685,0.273-2.159-0.445c-0.473-0.719-0.274-1.685,0.445-2.158
				L636.075,501.732z"/>
			<path style="fill:#FFFFFF;" d="M660.741,486.215l9.609-5.736c0.638-0.381,1.464-0.173,1.845,0.466
				c0.378,0.634,0.174,1.454-0.454,1.838l-9.547,5.837c-0.662,0.405-1.527,0.196-1.931-0.466c-0.405-0.662-0.196-1.526,0.466-1.931
				L660.741,486.215z"/>
		</g>
		<g>
			<polygon style="fill:#7D97F4;" points="710.395,425.689 715.134,460.505 736.676,442.327 			"/>
			<path style="fill:#91B3FA;" d="M864.237,384.395l-82.798,95.27c-1.585,1.824-3.844,2.924-6.258,3.048
				c-2.413,0.124-4.773-0.741-6.536-2.393l-92.521-86.734c-1.059-0.993-1.41-2.529-0.887-3.884c0.523-1.355,1.815-2.257,3.267-2.28
				L864.237,384.395z"/>
			<polygon style="fill:#7D97F4;" points="710.407,425.691 864.237,384.395 725.295,439.735 726.198,449.446 			"/>
			<polygon style="fill:#7D97F4;" points="734.185,447.994 715.134,460.505 725.295,439.735 			"/>
		</g>
	</g>
</g>
</svg>
