<svg xmlns="http://www.w3.org/2000/svg" width="40" height="40" viewBox="0 0 40 40" version="1.1">
	<path d="M 1.688 1.645 C 1.310 2.024, 1 7.883, 1 14.667 L 1 27 20.030 27 L 39.060 27 38.780 14.250 L 38.500 1.500 20.438 1.228 C 10.505 1.079, 2.067 1.266, 1.688 1.645 M 9.383 5.583 C 0.123 10.151, 3.571 24, 13.969 24 C 23.936 24, 27.380 11.911, 19.025 6.250 C 15.131 3.612, 13.595 3.505, 9.383 5.583 M 24 6.500 C 24 7.325, 24.675 8, 25.500 8 C 26.325 8, 27 7.325, 27 6.500 C 27 5.675, 26.325 5, 25.500 5 C 24.675 5, 24 5.675, 24 6.500 M 29.496 6.007 C 28.750 7.214, 31.198 8.302, 33.609 7.835 C 34.558 7.651, 35.522 6.938, 35.750 6.250 C 36.258 4.725, 30.428 4.499, 29.496 6.007 M 9.337 8.477 C 4.429 11.914, 6.191 20.224, 12.102 21.523 C 19.030 23.044, 23.771 14.579, 18.897 9.391 C 16.342 6.670, 12.447 6.298, 9.337 8.477 M 13 10 C 13 11.867, 13.267 12.133, 14.200 11.200 C 15.133 10.267, 15.133 9.733, 14.200 8.800 C 13.267 7.867, 13 8.133, 13 10 M 26.741 10.592 C 25.305 12.028, 27.283 13, 31.642 13 C 34.814 13, 36.044 12.626, 35.756 11.750 C 35.314 10.408, 27.880 9.453, 26.741 10.592 M 13 17 C 13 18.650, 13.450 20, 14 20 C 14.550 20, 15 18.650, 15 17 C 15 15.350, 14.550 14, 14 14 C 13.450 14, 13 15.350, 13 17 M 26.500 17 C 26.119 17.616, 27.823 18, 30.941 18 C 33.723 18, 36 17.550, 36 17 C 36 16.450, 34.002 16, 31.559 16 C 29.116 16, 26.840 16.450, 26.500 17 M 24 22.500 C 24 23.500, 25 24, 27 24 C 29 24, 30 23.500, 30 22.500 C 30 21.500, 29 21, 27 21 C 25 21, 24 21.500, 24 22.500 M 32.543 21.931 C 32.226 22.443, 32.425 23.144, 32.984 23.490 C 34.177 24.227, 36 23.291, 36 21.941 C 36 20.724, 33.293 20.716, 32.543 21.931 M 8 32.893 C 8 34.594, 7.356 36.033, 6.437 36.386 C 3.492 37.516, 6.116 39, 11.059 39 C 14.784 39, 16 38.631, 16 37.500 C 16 36.675, 15.325 36, 14.500 36 C 13.500 36, 13 35, 13 33 C 13 30.467, 12.611 30, 10.500 30 C 8.409 30, 8 30.474, 8 32.893 M 27 33 C 27 35, 26.500 36, 25.500 36 C 24.675 36, 24 36.675, 24 37.500 C 24 38.631, 25.216 39, 28.941 39 C 34.080 39, 36.758 37.272, 33.101 36.316 C 31.579 35.918, 31 34.972, 31 32.883 C 31 30.667, 30.538 30, 29 30 C 27.444 30, 27 30.667, 27 33" stroke="none" fill="#fff8" fill-rule="evenodd"/>
</svg>