<svg width="19" height="16" viewBox="0 0 19 16" fill="none" xmlns="http://www.w3.org/2000/svg">
    <path
        d="M8.94708 2.28696H2.479C2.33934 2.28696 2.23459 2.40043 2.23459 2.53137V11.4173C2.23459 11.557 2.34807 11.6618 2.479 11.6618H8.57174L4.44299 15.5723C4.34698 15.6683 4.33825 15.8254 4.43426 15.9214C4.53028 16.0175 4.6874 16.0262 4.78342 15.9302L8.93836 11.9847V15.7469C8.93836 15.8865 9.05183 15.9913 9.18277 15.9913C9.32243 15.9913 9.42717 15.8778 9.42717 15.7469V11.9935L13.4948 15.9302C13.5385 15.9738 13.6083 16 13.6694 16C13.7305 16 13.8003 15.9738 13.844 15.9214C13.94 15.8254 13.94 15.6683 13.8352 15.5723L9.79378 11.6618H15.8167C15.9564 11.6618 16.0611 11.5483 16.0611 11.4173V2.5401C16.0611 2.40044 15.9476 2.29569 15.8167 2.29569H9.42717V0.488814H18.1298C18.2695 0.488814 18.3743 0.37534 18.3743 0.244407C18.3743 0.104745 18.2608 0 18.1298 0H0.244407C0.104745 0 0 0.113474 0 0.244407C0 0.384069 0.113474 0.488814 0.244407 0.488814H8.94708V2.28696ZM15.581 2.78451V11.1729H9.19149H2.72341V2.78451H15.581Z"
        fill="#000" />
</svg>