<svg width="16" height="12" viewBox="0 0 16 16" fill="none" xmlns="http://www.w3.org/2000/svg">
    <path
        d="M3.96287 15.1306C3.93117 15.1306 3.90741 15.1227 3.8757 15.1147C3.79644 15.083 3.74891 15.0038 3.74891 14.9245V11.7066H0.285304C0.174342 11.7066 0.0792236 11.6115 0.0792236 11.5005V0.285426C0.0792236 0.174464 0.174342 0.0793457 0.285304 0.0793457H15.1146C15.2256 0.0793457 15.3207 0.174464 15.3207 0.285426V11.5005C15.3207 11.6115 15.2256 11.7066 15.1146 11.7066H7.78315L4.10558 15.0751C4.05803 15.1068 4.01043 15.1306 3.96287 15.1306ZM0.491336 11.2865H3.96287C4.07384 11.2865 4.16896 11.3816 4.16896 11.4926V14.449L7.56125 11.342C7.60088 11.3103 7.64843 11.2865 7.70391 11.2865H14.9085V0.483573H0.49927V11.2865H0.491336Z"
        fill="#000" />
    <path
        d="M3.96294 15.2098C3.92331 15.2098 3.88372 15.2018 3.85201 15.186C3.74898 15.1384 3.67762 15.0354 3.67762 14.9244V11.7858H0.285368C0.126851 11.7858 0 11.659 0 11.5005V0.285344C0 0.126827 0.126851 0 0.285368 0H15.1147C15.2732 0 15.4 0.126827 15.4 0.285344V11.5005C15.4 11.659 15.2732 11.7858 15.1147 11.7858H7.81495L4.16109 15.1384C4.09768 15.1781 4.03427 15.2098 3.96294 15.2098ZM0.285368 0.150594C0.214035 0.150594 0.158527 0.206078 0.158527 0.277411V11.4925C0.158527 11.5639 0.214035 11.6193 0.285368 11.6193H3.74897C3.7886 11.6193 3.82821 11.651 3.82821 11.6986V14.9165C3.82821 14.972 3.85995 15.0116 3.9075 15.0354C3.95506 15.0512 4.01053 15.0433 4.05016 15.0116L7.72773 11.6431C7.74358 11.6273 7.75944 11.6193 7.78322 11.6193H15.1147C15.186 11.6193 15.2415 11.5639 15.2415 11.4925V0.277411C15.2415 0.206078 15.186 0.150594 15.1147 0.150594H0.285368ZM4.16902 14.5281C4.16109 14.5281 4.14526 14.5281 4.13733 14.5202C4.10563 14.5044 4.08978 14.4806 4.08978 14.4489V11.4925C4.08978 11.4212 4.03427 11.3657 3.96294 11.3657H0.491401C0.451771 11.3657 0.412161 11.334 0.412161 11.2865V0.483491C0.412161 0.443862 0.443845 0.404228 0.491401 0.404228H14.9007C14.9403 0.404228 14.9799 0.435936 14.9799 0.483491V11.2865C14.9799 11.3261 14.9482 11.3657 14.9007 11.3657H7.69604C7.66434 11.3657 7.63265 11.3816 7.60887 11.3974L4.21657 14.5044C4.20865 14.5202 4.18487 14.5281 4.16902 14.5281ZM0.570688 11.2072H3.96294C4.12146 11.2072 4.24831 11.334 4.24831 11.4925V14.2666L7.50583 11.2785C7.56131 11.231 7.62471 11.2072 7.69604 11.2072H14.8214V0.562755H0.562755V11.2072H0.570688Z"
        fill="#000" />
</svg>