<?xml version="1.0" standalone="no"?>
<!DOCTYPE svg PUBLIC "-//W3C//DTD SVG 20010904//EN"
 "http://www.w3.org/TR/2001/REC-SVG-20010904/DTD/svg10.dtd">
<svg version="1.0" xmlns="http://www.w3.org/2000/svg"
 width="40.000000pt" height="40.000000pt" viewBox="0 0 40.000000 40.000000"
 preserveAspectRatio="xMidYMid meet">
<metadata>
Created by potrace 1.16, written by Peter Selinger 2001-2019
</metadata>
<g transform="translate(0.000000,40.000000) scale(0.100000,-0.100000)"
fill="#fff8" stroke="none">
<path d="M162 308 c-6 -6 -12 -18 -12 -26 0 -10 -3 -10 -16 2 -30 31 -67 13
-63 -30 2 -16 -4 -40 -14 -54 -20 -28 -22 -71 -5 -88 7 -7 27 -12 44 -12 18 0
36 -5 39 -10 8 -13 122 -13 130 0 3 5 21 10 39 10 17 0 37 5 44 12 17 17 15
60 -5 88 -10 14 -16 38 -14 57 2 28 -1 33 -25 39 -20 5 -31 3 -38 -9 -9 -13
-11 -13 -21 6 -12 25 -63 35 -83 15z"/>
</g>
</svg>
