<svg width="16" height="11" viewBox="0 0 16 11" fill="none" xmlns="http://www.w3.org/2000/svg">
    <path
        d="M14.9075 8.20637V1.27061C14.9075 1.08447 14.7861 0.922611 14.5999 0.874052C13.7097 0.639354 10.9661 0 7.42948 0C3.89281 0 1.18159 0.639354 0.30754 0.874052C0.129493 0.922611 0 1.08447 0 1.27061V8.0607C0 8.31968 0.226628 8.51391 0.477513 8.46535C1.62673 8.27112 4.63737 7.80171 7.42948 7.80171C10.2054 7.80171 13.2483 8.36823 14.4137 8.60293C14.6727 8.65958 14.9075 8.46534 14.9075 8.20637ZM0.461311 1.2949C1.11685 1.10875 3.73904 0.453216 7.42948 0.453216C11.1199 0.453216 13.7825 1.11685 14.4542 1.2949V8.14163C13.5235 7.94739 10.4482 7.3485 7.42948 7.3485C4.41886 7.3485 1.36773 7.84218 0.461311 8.00404V1.2949Z"
        fill="#000" />
    <path
        d="M15.5387 2.72725V9.51733C14.608 9.3231 11.5327 8.72421 8.51398 8.72421C5.44671 8.72421 2.34708 9.23408 1.4973 9.38784C1.36781 9.41212 1.2869 9.53351 1.31118 9.65491C1.33546 9.77631 1.44873 9.85724 1.57821 9.84105C2.4118 9.69538 5.47908 9.18552 8.51398 9.18552C11.3385 9.18552 14.4219 9.76821 15.555 10.0029C15.7816 10.0515 16.0001 9.87343 16.0001 9.63873V2.73534C16.0001 2.60585 15.8949 2.50874 15.7735 2.50874C15.644 2.50065 15.5387 2.60585 15.5387 2.72725Z"
        fill="#000" />
    <path
        d="M7.45371 6.56352V5.94036C8.44106 5.7785 9.20184 4.92063 9.20184 3.88472C9.20184 2.84881 8.44106 1.99094 7.45371 1.82908V1.24638C7.45371 1.11689 7.34853 1.01978 7.22713 1.01978C7.09764 1.01978 7.0005 1.12498 7.0005 1.24638V1.8048C5.90794 1.86955 5.04199 2.77597 5.04199 3.88472C5.04199 4.99347 5.90794 5.89989 7.0005 5.96464V6.56352C7.0005 6.69301 7.10573 6.79013 7.22713 6.79013C7.34853 6.79013 7.45371 6.68492 7.45371 6.56352ZM5.4952 3.88472C5.4952 2.98639 6.22359 2.25801 7.12192 2.25801C8.02025 2.25801 8.74858 2.98639 8.74858 3.88472C8.74858 4.78305 8.02025 5.51143 7.12192 5.51143C6.22359 5.51143 5.4952 4.78305 5.4952 3.88472Z"
        fill="#000" />
</svg>