<svg width="17" height="17" viewBox="0 0 17 17" fill="none" xmlns="http://www.w3.org/2000/svg">
    <path
        d="M8.5 17C3.81034 17 0 13.1897 0 8.5C0 3.81035 3.81034 0 8.5 0C13.1897 0 17 3.81035 17 8.5C17 13.1897 13.1897 17 8.5 17ZM8.5 0.464086C4.07088 0.464086 0.46408 4.07088 0.46408 8.5C0.46408 12.9291 4.07088 16.5359 8.5 16.5359C12.9291 16.5359 16.5359 12.9291 16.5359 8.5C16.5441 4.07088 12.9373 0.464086 8.5 0.464086Z"
        fill="#fff" />
    <path
        d="M8.50017 5.75623C8.00352 5.75623 7.59644 5.34915 7.59644 4.8525C7.59644 4.35586 8.00352 3.94873 8.50017 3.94873C8.99682 3.94873 9.4039 4.35586 9.4039 4.8525C9.4039 5.34915 8.99682 5.75623 8.50017 5.75623ZM8.50017 4.41282C8.25592 4.41282 8.06052 4.60825 8.06052 4.8525C8.06052 5.09676 8.25592 5.29214 8.50017 5.29214C8.74442 5.29214 8.93982 5.09676 8.93982 4.8525C8.93982 4.60825 8.74442 4.41282 8.50017 4.41282Z"
        fill="#fff" />
    <path
        d="M8.50009 12.5708C8.36982 12.5708 8.27212 12.465 8.27212 12.3429V7.3031H7.29511C7.16484 7.3031 7.06714 7.19729 7.06714 7.07516C7.06714 6.95303 7.17298 6.84717 7.29511 6.84717H8.50009C8.63036 6.84717 8.72806 6.95303 8.72806 7.07516V12.3429C8.7362 12.465 8.63036 12.5708 8.50009 12.5708Z"
        fill="#fff" />
    <path
        d="M10.1203 12.5709H6.888C6.75773 12.5709 6.66003 12.4651 6.66003 12.3429C6.66003 12.2208 6.76588 12.115 6.888 12.115H10.1203C10.2506 12.115 10.3483 12.2208 10.3483 12.3429C10.3483 12.4651 10.2424 12.5709 10.1203 12.5709Z"
        fill="#fff" />
</svg>