<svg width="17" height="16" viewBox="0 0 17 16" fill="none" xmlns="http://www.w3.org/2000/svg">
<path d="M16.2626 8.49931C16.2047 8.49931 16.1551 8.47449 16.1055 8.43315L8.274 0.601643L0.442465 8.43315C0.359767 8.51584 0.219185 8.51584 0.136486 8.43315C0.0537884 8.35045 0.0537884 8.20986 0.136486 8.12717L8.11687 0.146801C8.19957 0.0641033 8.34015 0.0641033 8.42285 0.146801L16.4032 8.12717C16.4859 8.20986 16.4859 8.35045 16.4032 8.43315C16.3784 8.47449 16.3205 8.49931 16.2626 8.49931Z" fill="#fff"/>
<path d="M16.2626 8.57373C16.1799 8.57373 16.1054 8.54065 16.0558 8.48276L8.28224 0.709138L0.508601 8.48276C0.392824 8.59854 0.20261 8.59854 0.086833 8.48276C-0.0289443 8.36698 -0.0289443 8.17677 0.086833 8.061L8.06722 0.0806306C8.17473 -0.0268769 8.38148 -0.0268769 8.48899 0.0806306L16.4693 8.061C16.5272 8.11889 16.5603 8.19331 16.5603 8.26774C16.5603 8.35044 16.5272 8.42487 16.4693 8.47449C16.4197 8.54892 16.3453 8.57373 16.2626 8.57373ZM8.28224 0.518929C8.30705 0.518929 8.3236 0.527205 8.34014 0.543744L16.1716 8.37525C16.2212 8.42487 16.3122 8.42487 16.3618 8.37525C16.3866 8.35044 16.4032 8.31736 16.4032 8.27601C16.4032 8.24294 16.3866 8.20985 16.3618 8.17677L8.38147 0.196407C8.33186 0.146789 8.2409 0.146789 8.19129 0.196407L0.2109 8.17677C0.186091 8.20158 0.169561 8.23466 0.169561 8.27601C0.169561 8.30909 0.186091 8.34217 0.2109 8.37525C0.260519 8.42487 0.351471 8.42487 0.40109 8.37525L8.23262 0.543744C8.24089 0.527205 8.25743 0.518929 8.28224 0.518929Z" fill="#fff"/>
<path d="M14.1206 15.9173H10.2669C10.1511 15.9173 10.0519 15.818 10.0519 15.7023V10.178H6.51239V15.7023C6.51239 15.818 6.41315 15.9173 6.29737 15.9173H2.44366C2.32788 15.9173 2.22864 15.818 2.22864 15.7023V6.3243C2.22864 6.20852 2.32788 6.10928 2.44366 6.10928C2.55944 6.10928 2.65868 6.20852 2.65868 6.3243V15.4872H6.07412V9.96302C6.07412 9.84724 6.17331 9.748 6.28909 9.748H10.2586C10.3744 9.748 10.4736 9.84724 10.4736 9.96302V15.4872H13.889V6.3243C13.889 6.20852 13.9883 6.10928 14.1041 6.10928C14.2198 6.10928 14.3191 6.20852 14.3191 6.3243V15.7105C14.3356 15.8263 14.2447 15.9173 14.1206 15.9173Z" fill="#fff"/>
<path d="M14.1207 16H10.2669C10.1015 16 9.9692 15.8677 9.9692 15.7023V10.2607H6.59511V15.7023C6.59511 15.8677 6.4628 16 6.29741 16H2.4437C2.2783 16 2.146 15.8677 2.146 15.7023V6.32429C2.146 6.1589 2.2783 6.02658 2.4437 6.02658C2.60909 6.02658 2.7414 6.1589 2.7414 6.32429V15.4128H5.9997V9.97128C5.9997 9.80588 6.13201 9.67356 6.29741 9.67356H10.2669C10.4323 9.67356 10.5647 9.80588 10.5647 9.97128V15.4128H13.823V6.32429C13.823 6.1589 13.9553 6.02658 14.1207 6.02658C14.2861 6.02658 14.4184 6.1589 14.4184 6.32429V15.7105C14.4184 15.8677 14.2861 16 14.1207 16ZM6.51243 10.0953H10.0519C10.0933 10.0953 10.1346 10.1284 10.1346 10.178V15.7023C10.1346 15.7767 10.1925 15.8346 10.2669 15.8346H14.1207C14.1951 15.8346 14.253 15.7767 14.253 15.7023V6.32429C14.253 6.24987 14.1951 6.19197 14.1207 6.19197C14.0462 6.19197 13.9883 6.24987 13.9883 6.32429V15.4872C13.9883 15.5286 13.9553 15.5699 13.9056 15.5699H10.4902C10.4489 15.5699 10.4075 15.5369 10.4075 15.4872V9.96301C10.4075 9.88858 10.3496 9.83069 10.2752 9.83069H6.30568C6.23126 9.83069 6.17339 9.88858 6.17339 9.96301V15.4872C6.17339 15.5286 6.14028 15.5699 6.09066 15.5699H2.67523C2.63388 15.5699 2.59255 15.5369 2.59255 15.4872V6.32429C2.59255 6.24987 2.53463 6.19197 2.4602 6.19197C2.38577 6.19197 2.32791 6.24987 2.32791 6.32429V15.7105C2.32791 15.785 2.38577 15.8428 2.4602 15.8428H6.31396C6.38839 15.8428 6.44626 15.785 6.44626 15.7105V10.1863C6.42972 10.1367 6.47108 10.0953 6.51243 10.0953Z" fill="#fff"/>
</svg>
