<svg width="20" height="20" viewBox="0 0 20 20" fill="none" xmlns="http://www.w3.org/2000/svg">
    <path
        d="M0.999966 18.5107L0.999967 1.24359C0.999967 1.10441 1.11308 1 1.24356 1L9.90758 1C10.0468 1 10.1511 1.11311 10.1511 1.24359C10.1511 1.38277 10.0381 1.48713 9.90758 1.48713L1.4871 1.48713L1.4871 18.2672L9.90758 18.2672C10.0468 18.2672 10.1511 18.3802 10.1511 18.5107C10.1511 18.6499 10.0381 18.7543 9.90758 18.7543L1.24356 18.7543C1.11308 18.763 0.999966 18.6499 0.999966 18.5107Z"
        fill="rgb(239 68 68)" stroke="rgb(239 68 68)" />
    <path
        d="M4.81882 9.88153C4.81882 9.74235 4.93194 9.63794 5.06242 9.63794L18.3716 9.63794C18.5108 9.63794 18.6151 9.75105 18.6151 9.88153C18.6151 10.0207 18.5021 10.1251 18.3716 10.1251L5.06242 10.1251C4.93194 10.1251 4.81882 10.012 4.81882 9.88153Z"
        fill="rgb(239 68 68)" stroke="rgb(239 68 68)" />
    <path
        d="M15.9446 11.7083C15.9446 11.63 15.9794 11.5517 16.049 11.5082L18.328 9.88157L16.049 8.2549C15.9359 8.17661 15.9098 8.02001 15.9881 7.90692C16.0664 7.79384 16.2229 7.76773 16.336 7.84602L18.9021 9.6728C19.0326 9.76849 19.0326 9.98593 18.9021 10.0729L16.336 11.8997C16.2229 11.978 16.075 11.9519 15.9881 11.8388C15.9533 11.804 15.9446 11.7605 15.9446 11.7083Z"
        fill="rgb(239 68 68)" stroke="rgb(239 68 68)8" />
</svg>