<svg width="12" height="12" viewBox="0 0 12 16" fill="none" xmlns="http://www.w3.org/2000/svg">
    <path
        d="M0.729875 16V7.74121H1.20215V15.5049H8.02862V11.2068L10.0894 9.02391C10.5617 8.52883 10.9195 7.97 11.1628 7.3474C11.4061 6.7248 11.5277 6.06845 11.5277 5.37834C11.5277 4.68823 11.4061 4.03188 11.1628 3.40928C10.9195 2.78669 10.5689 2.23535 10.1109 1.75527L9.12344 0.697609L6.13953 3.8256H3.13417L1.58855 5.44585L1.24508 5.1083L2.94097 3.33052H5.94633L9.12344 0L10.4544 1.37271C10.9696 1.9128 11.3524 2.52789 11.6029 3.218C11.8533 3.90811 11.9857 4.62822 12 5.37834C11.9857 6.12846 11.8533 6.84857 11.6029 7.53868C11.3524 8.22879 10.9696 8.84388 10.4544 9.38397L8.50089 11.4093V16H0.729875ZM4.31485 11.9269L0.300537 7.74121C0.200358 7.63619 0.125224 7.50867 0.0751342 7.35865C0.0250447 7.20863 0 7.0586 0 6.90858C0 6.75856 0.0250447 6.61228 0.0751342 6.46976C0.125224 6.32724 0.200358 6.20347 0.300537 6.09845L1.67442 4.65823L3.90698 6.95359C4.26476 7.32864 4.52952 7.74871 4.70125 8.21378C4.87299 8.67886 4.95886 9.16643 4.95886 9.67651C4.95886 10.0666 4.90519 10.4566 4.79785 10.8467C4.69052 11.2368 4.52952 11.5968 4.31485 11.9269Z"
        fill="#fff" />
</svg>