<svg width="24" height="28" viewBox="0 0 24 28" fill="none" xmlns="http://www.w3.org/2000/svg">
    <path
        d="M8.42483 10.7754C7.31632 11.4154 6.94432 12.8311 7.57932 13.9309C8.21932 15.0394 9.63498 15.4115 10.7348 14.7765C11.8433 14.1365 12.2153 12.7208 11.5803 11.6209C10.954 10.5161 9.53335 10.1354 8.42483 10.7754ZM10.4548 14.2915C9.62345 14.7715 8.54929 14.491 8.06429 13.6509C7.58429 12.8196 7.86479 11.7454 8.70483 11.2604C9.53622 10.7804 10.6104 11.0609 11.0954 11.9009C11.5804 12.741 11.2949 13.8065 10.4548 14.2915Z"
        fill="#000" />
    <path
        d="M17.7811 16.401L13.9961 9.84523C13.9661 9.79327 13.9238 9.75996 13.8728 9.73166L5.84899 5.85406C5.76569 5.80977 5.67641 5.81514 5.58115 5.87014C5.49454 5.92014 5.45027 6.00344 5.44697 6.09773L4.95149 15.1595C4.95051 15.2178 4.95818 15.2711 4.98318 15.3144L11.2949 26.3466C11.3349 26.4159 11.3959 26.4615 11.4642 26.4798C11.5325 26.4981 11.6167 26.4841 11.6774 26.4491L19.7574 21.7841C19.7834 21.7691 19.8043 21.7454 19.8253 21.7218C19.9702 21.6728 20.1138 21.6014 20.2524 21.5214C21.6207 20.7314 22.0892 18.9829 21.2992 17.6146C20.6065 16.3748 19.0849 15.8793 17.7811 16.401ZM11.6572 25.8141L5.53048 15.1024L5.99347 6.54431L13.5511 10.1945L17.2761 16.6464C16.0221 17.4743 15.6115 19.1432 16.3715 20.4596C16.8315 21.2563 17.6226 21.7465 18.4851 21.8605L11.6522 25.8055L11.6572 25.8141ZM19.9947 21.0351C18.9035 21.6651 17.4965 21.2881 16.8665 20.1969C16.2365 19.1057 16.6135 17.6987 17.7047 17.0687C18.7959 16.4387 20.2029 16.8157 20.8329 17.9069C21.4629 18.9981 21.0859 20.4051 19.9947 21.0351Z"
        fill="#000" />
    <path
        d="M17.9202 20.7325C17.9202 20.7325 17.9102 20.7325 17.9002 20.7325C17.8202 20.7225 17.7402 20.6825 17.6902 20.6225L17.0602 19.8025C16.9602 19.6825 16.9902 19.5025 17.1102 19.4025C17.2302 19.3025 17.4102 19.3325 17.5102 19.4525L17.9402 20.0125L19.8702 18.0825C19.9802 17.9725 20.1602 17.9725 20.2702 18.0825C20.3802 18.1925 20.3802 18.3725 20.2702 18.4825L18.1102 20.6425C18.0702 20.7025 18.0002 20.7325 17.9202 20.7325Z"
        fill="#000" />
</svg>