<svg width="17" height="17" viewBox="0 0 17 17" fill="none" xmlns="http://www.w3.org/2000/svg">
    <path
        d="M8.5 17C3.81035 17 0 13.1897 0 8.5C0 3.81035 3.81035 0 8.5 0C13.1897 0 17 3.81035 17 8.5C17 13.1815 13.1897 17 8.5 17ZM8.5 0.464086C4.07088 0.464086 0.464074 4.07088 0.464074 8.5C0.464074 12.9291 4.07088 16.5359 8.5 16.5359C12.9291 16.5359 16.5359 12.9291 16.5359 8.5C16.5359 4.07088 12.9373 0.464086 8.5 0.464086Z"
        fill="#fff" />
    <path
        d="M5.87835 12.1882C5.82136 12.1882 5.76437 12.1638 5.72366 12.1231L3.82663 10.3482C3.73707 10.2586 3.72893 10.112 3.81849 10.0225C3.90805 9.93291 4.05459 9.92481 4.14415 10.0144L5.87835 11.6346L12.6197 4.93387C12.7093 4.84431 12.8558 4.84431 12.9454 4.93387C13.035 5.02343 13.035 5.17 12.9454 5.25956L6.04119 12.1149C6.00048 12.1638 5.94349 12.1882 5.87835 12.1882Z"
        fill="#fff" />
</svg>