<svg width="12" height="12" viewBox="0 0 12 18" fill="none" xmlns="http://www.w3.org/2000/svg">
    <path
        d="M9.0281 0.323094C9.0281 0.197453 8.9204 0.0897522 8.79476 0.0897522C8.66912 0.0897522 8.56145 0.197453 8.56145 0.323094V1.89361H6.99093V0.323094C6.99093 0.197453 6.88323 0.0897522 6.75759 0.0897522C6.63195 0.0897522 6.52425 0.197453 6.52425 0.323094V1.89361H4.88195H4.87297V0.332077C4.87297 0.206436 4.7653 0.0987353 4.63966 0.0987353C4.51402 0.0987353 4.40631 0.206436 4.40631 0.332077V1.90259H2.68323V0.332077C2.68323 0.206436 2.57555 0.0987353 2.44991 0.0987353C2.32427 0.0987353 2.21657 0.206436 2.21657 0.332077V1.90259H0.681961C0.358884 1.90259 0.0986328 2.16284 0.0986328 2.48592V16.8538C0.0986328 17.1769 0.358884 17.4372 0.681961 17.4372H10.814C11.1371 17.4372 11.3973 17.1769 11.3973 16.8538V2.46795C11.3973 2.14488 11.1371 1.88462 10.814 1.88462H9.03709V0.323094H9.0281ZM10.9037 16.9436H0.556307V2.36026H2.19863V4.00259C2.19863 4.12823 2.3063 4.2359 2.43194 4.2359C2.55759 4.2359 2.66529 4.12823 2.66529 4.00259V2.36026H4.38838V4.00259C4.38838 4.12823 4.49605 4.2359 4.62169 4.2359C4.74733 4.2359 4.85503 4.12823 4.85503 4.00259V2.36026H6.49733V3.93078C6.49733 4.05642 6.60503 4.16412 6.73067 4.16412C6.85631 4.16412 6.96401 4.05642 6.96401 3.93078V2.36026H8.53452V4.08335C8.53452 4.20899 8.6422 4.31667 8.76784 4.31667C8.89348 4.31667 9.00118 4.20899 9.00118 4.08335V2.36026H10.8858V16.9436H10.9037Z"
        fill="#000" />
    <path
        d="M10.7962 17.5H0.664094C0.296145 17.5 0 17.2039 0 16.8359V2.46795C0 2.1 0.296145 1.80385 0.664094 1.80385H2.10898V0.323091C2.10898 0.143604 2.25256 0 2.43204 0C2.61153 0 2.75513 0.143604 2.75513 0.323091V1.80385H4.30768V0.323091C4.30768 0.143604 4.45129 0 4.63077 0C4.81026 0 4.95384 0.143604 4.95384 0.323091V1.80385H6.42564V0.323091C6.42564 0.143604 6.56922 0 6.74871 0C6.9282 0 7.0718 0.143604 7.0718 0.323091V1.80385H8.46281V0.323091C8.46281 0.143604 8.60642 0 8.7859 0C8.96539 0 9.10897 0.143604 9.10897 0.323091V1.80385H10.7962C11.1641 1.80385 11.4602 2.1 11.4602 2.46795V16.8359C11.4692 17.2039 11.1641 17.5 10.7962 17.5ZM0.664094 1.97437C0.394863 1.97437 0.170515 2.19872 0.170515 2.46795V16.8359C0.170515 17.1051 0.394863 17.3295 0.664094 17.3295H10.7962C11.0654 17.3295 11.2897 17.1051 11.2897 16.8359V2.46795C11.2897 2.19872 11.0654 1.97437 10.7962 1.97437H9.01922C8.97435 1.97437 8.9295 1.93847 8.9295 1.88462V0.314108C8.9295 0.233339 8.86667 0.170515 8.7859 0.170515C8.70514 0.170515 8.64231 0.233339 8.64231 0.314108V1.88462C8.64231 1.92949 8.60641 1.97437 8.55256 1.97437H6.98205C6.93718 1.97437 6.8923 1.93847 6.8923 1.88462V0.314108C6.8923 0.233339 6.82948 0.170515 6.74871 0.170515C6.66794 0.170515 6.60514 0.233339 6.60514 0.314108V1.88462C6.60514 1.92949 6.56924 1.97437 6.51539 1.97437H4.87307C4.8282 1.97437 4.78332 1.92949 4.78332 1.88462V0.323091C4.78332 0.242322 4.72052 0.179498 4.63976 0.179498C4.55899 0.179498 4.49616 0.242322 4.49616 0.323091V1.8936C4.49616 1.93848 4.46026 1.98335 4.40641 1.98335H2.68332C2.63845 1.98335 2.5936 1.94745 2.5936 1.8936V0.323091C2.5936 0.242322 2.53078 0.179498 2.45001 0.179498C2.36924 0.179498 2.30642 0.242322 2.30642 0.323091V1.8936C2.30642 1.93848 2.27051 1.98335 2.21667 1.98335H0.664094V1.97437ZM10.9038 17.0333H0.556406C0.511534 17.0333 0.466657 16.9974 0.466657 16.9436V2.36026C0.466657 2.31539 0.50256 2.27051 0.556406 2.27051H2.19873C2.2436 2.27051 2.28845 2.30641 2.28845 2.36026V4.00258C2.28845 4.08335 2.35127 4.14618 2.43204 4.14618C2.51281 4.14618 2.57564 4.08335 2.57564 4.00258V2.36026C2.57564 2.31539 2.61154 2.27051 2.66539 2.27051H4.38847C4.43335 2.27051 4.4782 2.30641 4.4782 2.36026V4.00258C4.4782 4.08335 4.54102 4.14618 4.62179 4.14618C4.70256 4.14618 4.76538 4.08335 4.76538 4.00258V2.36026C4.76538 2.31539 4.80129 2.27051 4.85513 2.27051H6.49743C6.5423 2.27051 6.58718 2.30641 6.58718 2.36026V3.93077C6.58718 4.01154 6.65 4.07437 6.73077 4.07437C6.81154 4.07437 6.87436 4.01154 6.87436 3.93077V2.36026C6.87436 2.31539 6.91027 2.27051 6.96411 2.27051H8.53462C8.5795 2.27051 8.62437 2.30641 8.62437 2.36026V4.08335C8.62437 4.16412 8.68717 4.22694 8.76794 4.22694C8.84871 4.22694 8.91153 4.16412 8.91153 4.08335V2.36026C8.91153 2.31539 8.94743 2.27051 9.00128 2.27051H10.8859C10.9308 2.27051 10.9757 2.30641 10.9757 2.36026V16.9436C10.9936 16.9885 10.9577 17.0333 10.9038 17.0333ZM0.646155 16.8538H10.8141V2.45001H9.10897V4.08335C9.10897 4.26284 8.96539 4.40641 8.7859 4.40641C8.60642 4.40641 8.46281 4.26284 8.46281 4.08335V2.45001H7.0718V3.93077C7.0718 4.11026 6.9282 4.25386 6.74871 4.25386C6.56922 4.25386 6.42564 4.11026 6.42564 3.93077V2.45001H4.95384V4.01154C4.95384 4.19103 4.81026 4.33463 4.63077 4.33463C4.45129 4.33463 4.30768 4.19103 4.30768 4.01154V2.45001H2.75513V4.01154C2.75513 4.19103 2.61153 4.33463 2.43204 4.33463C2.25256 4.33463 2.10898 4.19103 2.10898 4.01154V2.45001H0.637172V16.8538H0.646155Z"
        fill="#000" />
    <path
        d="M9.53983 8.40001H1.93854C1.8129 8.40001 1.7052 8.50771 1.7052 8.63335C1.7052 8.75899 1.8129 8.86667 1.93854 8.86667H9.53983C9.66547 8.86667 9.77317 8.75899 9.77317 8.63335C9.77317 8.49874 9.66547 8.40001 9.53983 8.40001Z"
        fill="#000" />
    <path
        d="M9.53985 8.95643H1.93857C1.75908 8.95643 1.61548 8.81285 1.61548 8.63336C1.61548 8.45388 1.75908 8.31027 1.93857 8.31027H9.53985C9.71934 8.31027 9.86292 8.45388 9.86292 8.63336C9.86292 8.81285 9.71037 8.95643 9.53985 8.95643ZM1.92959 8.48079C1.84882 8.48079 1.78599 8.54361 1.78599 8.62438C1.78599 8.70515 1.84882 8.76797 1.92959 8.76797H9.53087C9.61164 8.76797 9.67446 8.70515 9.67446 8.62438C9.67446 8.54361 9.61164 8.48079 9.53087 8.48079H1.92959Z"
        fill="#000" />
    <path
        d="M1.8487 11.1013H9.61151C9.73715 11.1013 9.84486 10.9936 9.84486 10.868C9.84486 10.7423 9.73715 10.6346 9.61151 10.6346H1.8487C1.72306 10.6346 1.61536 10.7423 1.61536 10.868C1.61536 10.9936 1.72306 11.1013 1.8487 11.1013Z"
        fill="#000" />
    <path
        d="M9.61151 11.191H1.8487C1.66921 11.191 1.52563 11.0475 1.52563 10.868C1.52563 10.6885 1.66921 10.5449 1.8487 10.5449H9.61151C9.791 10.5449 9.9346 10.6885 9.9346 10.868C9.9346 11.0475 9.791 11.191 9.61151 11.191ZM1.8487 10.7154C1.76793 10.7154 1.70511 10.7782 1.70511 10.859C1.70511 10.9398 1.76793 11.0026 1.8487 11.0026H9.61151C9.69228 11.0026 9.75511 10.9398 9.75511 10.859C9.75511 10.7782 9.69228 10.7154 9.61151 10.7154H1.8487Z"
        fill="#000" />
    <path
        d="M1.92973 13.3359H9.53101C9.65665 13.3359 9.76435 13.2282 9.76435 13.1026C9.76435 12.9769 9.65665 12.8692 9.53101 12.8692H1.92973C1.80408 12.8692 1.69641 12.9769 1.69641 13.1026C1.69641 13.2282 1.80408 13.3359 1.92973 13.3359Z"
        fill="#000" />
    <path
        d="M9.53985 13.4257H1.93857C1.75908 13.4257 1.61548 13.2821 1.61548 13.1026C1.61548 12.9231 1.75908 12.7795 1.93857 12.7795H9.53985C9.71934 12.7795 9.86292 12.9231 9.86292 13.1026C9.86292 13.2821 9.71037 13.4257 9.53985 13.4257ZM1.92959 12.95C1.84882 12.95 1.78599 13.0128 1.78599 13.0936C1.78599 13.1744 1.84882 13.2372 1.92959 13.2372H9.53087C9.61164 13.2372 9.67446 13.1744 9.67446 13.0936C9.67446 13.0128 9.61164 12.95 9.53087 12.95H1.92959Z"
        fill="#000" />
</svg>