<?xml version="1.0" standalone="no"?>
<!DOCTYPE svg PUBLIC "-//W3C//DTD SVG 20010904//EN"
 "http://www.w3.org/TR/2001/REC-SVG-20010904/DTD/svg10.dtd">
<svg version="1.0" xmlns="http://www.w3.org/2000/svg"
 width="40.000000pt" height="40.000000pt" viewBox="0 0 40.000000 40.000000"
 preserveAspectRatio="xMidYMid meet">

<g transform="translate(0.000000,40.000000) scale(0.100000,-0.100000)"
fill="#fff8" stroke="none">
<path d="M159 390 c-9 -5 -22 -23 -29 -39 -8 -21 -20 -31 -38 -33 -30 -3 -34
-17 -46 -183 -6 -83 -5 -93 14 -113 19 -20 30 -22 139 -22 111 0 119 1 140 24
22 23 22 25 11 152 -6 70 -13 131 -16 136 -3 4 -16 8 -28 8 -17 0 -27 9 -36
30 -19 46 -70 64 -111 40z m69 -26 c12 -8 22 -22 22 -30 0 -8 7 -14 15 -14 10
0 15 -10 15 -30 0 -20 -5 -30 -15 -30 -10 0 -15 10 -15 30 0 29 -1 30 -49 30
-46 0 -50 -2 -53 -27 -4 -39 -28 -42 -28 -4 0 21 5 31 15 31 8 0 15 6 15 14 0
13 36 46 50 46 3 0 16 -7 28 -16z m-38 -189 c16 -17 27 -22 34 -15 14 14 26
12 26 -5 0 -8 -8 -19 -18 -24 -15 -8 -26 -3 -57 29 -25 26 -34 40 -24 40 9 0
26 -11 39 -25z"/>
</g>
</svg>
