<svg width="18" height="17" viewBox="0 0 18 17" fill="none" xmlns="http://www.w3.org/2000/svg">
    <path
        d="M0.259162 17C0.196335 17 0.137435 16.9718 0.0824607 16.9153C0.0274869 16.8591 0 16.8018 0 16.7435V9.79424L1.79058 5.62003C1.87257 5.45321 1.9873 5.31438 2.13479 5.20354C2.28228 5.09254 2.45812 5.03704 2.6623 5.03704H10.3665C10.5432 5.03704 10.7156 5.09199 10.8836 5.20191C11.0517 5.31182 11.1699 5.45119 11.2382 5.62003L13.0052 9.79424V16.7435C13.0052 16.8018 12.9768 16.8591 12.9199 16.9153C12.8629 16.9718 12.805 17 12.7461 17C12.6683 17 12.6057 16.9718 12.5583 16.9153C12.5107 16.8591 12.4869 16.8018 12.4869 16.7435V15.251H0.518325V16.7435C0.518325 16.8018 0.489895 16.8591 0.433037 16.9153C0.376021 16.9718 0.318063 17 0.259162 17ZM0.824607 9.30453H12.1806L10.5785 5.55007H2.4267L0.824607 9.30453ZM0.518325 14.738H12.4869V9.81756H0.518325V14.738ZM3.01712 13.1523C3.26749 13.1523 3.47513 13.0706 3.64005 12.9074C3.80497 12.7442 3.88743 12.5416 3.88743 12.2997C3.88743 12.0578 3.80222 11.8479 3.63181 11.6701C3.46123 11.4922 3.25311 11.4033 3.00746 11.4033C2.77736 11.4033 2.57592 11.4913 2.40314 11.6673C2.23037 11.8431 2.14398 12.0578 2.14398 12.3114C2.14398 12.5455 2.23084 12.7442 2.40455 12.9074C2.57827 13.0706 2.78246 13.1523 3.01712 13.1523ZM9.99094 13.1523C10.2256 13.1523 10.4293 13.0706 10.6021 12.9074C10.7749 12.7442 10.8613 12.5416 10.8613 12.2997C10.8613 12.0578 10.7721 11.8479 10.5938 11.6701C10.4154 11.4922 10.2112 11.4033 9.98128 11.4033C9.75118 11.4033 9.54974 11.4913 9.37696 11.6673C9.20419 11.8431 9.1178 12.0578 9.1178 12.3114C9.1178 12.5455 9.20466 12.7442 9.37838 12.9074C9.55209 13.0706 9.75628 13.1523 9.99094 13.1523ZM14.9372 14.3649V7.32236L13.123 3.03155H4.45288L4.42178 3.09568C4.51084 2.93073 4.63547 2.7933 4.79568 2.68339C4.95589 2.57348 5.1322 2.51852 5.32461 2.51852H12.8403C13.017 2.51852 13.1855 2.57348 13.3457 2.68339C13.5059 2.7933 13.628 2.93267 13.712 3.10151L15.4555 7.20576V13.7819C15.4555 13.9335 15.3957 14.0685 15.276 14.187C15.1561 14.3056 15.0196 14.3649 14.8665 14.3649H14.9372ZM17.4817 11.7298V4.68724L15.6911 0.513032H7.13874L7.10764 0.57716C7.1967 0.412213 7.32133 0.274783 7.48154 0.16487C7.64175 0.0549567 7.81806 0 8.01047 0H15.4084C15.5851 0 15.7535 0.0549567 15.9137 0.16487C16.074 0.274783 16.1961 0.414156 16.2801 0.58299L18 4.59396V11.1468C18 11.2984 17.9402 11.4334 17.8205 11.5518C17.7006 11.6705 17.5641 11.7298 17.411 11.7298H17.4817Z"
        fill="#000" />
</svg>