<?xml version="1.0" encoding="utf-8"?>
<!DOCTYPE svg PUBLIC "-//W3C//DTD SVG 1.0//EN" "http://www.w3.org/TR/2001/REC-SVG-20010904/DTD/svg10.dtd">
<svg version="1.0" xmlns="http://www.w3.org/2000/svg" width="55px" height="55px" viewBox="0 0 55 55" preserveAspectRatio="xMidYMid meet">
 <g fill="#000">
  <path d="M0 27.5 l0 -27.5 27.5 0 27.5 0 0 27.5 0 27.5 -27.5 0 -27.5 0 0 -27.5z m49 9 l0 -6.5 -5.5 0 -5.5 0 0 4 c0 2.2 -0.4 4 -1 4 -0.5 0 -1 1.1 -1 2.5 0 2.4 0.2 2.5 6.5 2.5 l6.5 0 0 -6.5z m-4 -19.5 c0 -0.5 -0.9 -1 -2 -1 -1.1 0 -2 0.5 -2 1 0 0.6 0.9 1 2 1 1.1 0 2 -0.4 2 -1z"/>
 </g>
 <g fill="#f5f5f5">
  <path d="M5.8 53.2 c-2.3 -0.4 -3 -9.9 -2.5 -33.9 0.2 -13.2 0.2 -13.3 2.5 -13.3 1.3 0 3.5 -0.9 4.9 -2 3.6 -2.8 13 -2.8 16.6 0 2.2 1.7 4 2 13.9 2 l11.3 0 -0.3 23.2 c-0.2 12.8 -0.4 23.3 -0.5 23.4 -0.4 0.4 -44.2 0.9 -45.9 0.6z m5.8 -4.4 c-0.2 -1.8 -0.4 -5.5 -0.5 -8.2 -0.1 -4.7 -0.2 -4.8 -1.9 -3.3 -1 1 -2.4 1.7 -3 1.7 -0.8 0 -1.2 2.2 -1.2 6.5 l0 6.5 3.4 0 c3.3 0 3.4 -0.2 3.2 -3.2z m7.2 0 c-0.2 -2.8 -0.8 -3.4 -3 -3.6 -2.6 -0.3 -2.8 -0.1 -2.8 3.2 0 3.3 0.2 3.6 3.1 3.6 2.8 0 3 -0.2 2.7 -3.2z m7 0 c-0.2 -2.8 -0.8 -3.4 -3 -3.6 -2.6 -0.3 -2.8 -0.1 -2.8 3.2 0 3.3 0.2 3.6 3.1 3.6 2.8 0 3 -0.2 2.7 -3.2z m7.2 -3.2 c0 -5.6 -0.3 -6.6 -2 -7.1 -1.1 -0.3 -2 -1.1 -2 -1.6 0 -0.5 -0.4 -0.9 -1 -0.9 -0.6 0 -1 3.3 -1 8 l0 8 3 0 3 0 0 -6.4z m18 1.9 c0 -1.3 -1.4 -1.5 -8.2 -1.3 -5.4 0.2 -8.3 0.7 -8.6 1.6 -0.3 0.9 1.8 1.2 8.2 1.2 7.1 0 8.6 -0.3 8.6 -1.5z m-36 -16 c0 -3.2 -0.2 -3.5 -3 -3.5 -2.9 0 -3 0.2 -2.8 3.5 0.2 3.1 0.5 3.5 3 3.5 2.5 0 2.8 -0.3 2.8 -3.5z m7 0 c0 -3.2 -0.3 -3.5 -2.9 -3.5 -2.6 0 -2.9 0.3 -2.9 3.5 0 3.2 0.3 3.5 2.9 3.5 2.6 0 2.9 -0.3 2.9 -3.5z m7 0 c0 -3.2 -0.2 -3.5 -3 -3.5 -2.8 0 -3 0.3 -3 3.5 0 3.2 0.2 3.5 3 3.5 2.8 0 3 -0.3 3 -3.5z m5 2.5 c-2 -1.3 -4.3 -1.3 -3.5 0 0.3 0.6 1.6 1 2.8 1 1.8 0 1.9 -0.2 0.7 -1z m-26 -5 c0 -0.5 -0.7 -1 -1.5 -1 -0.8 0 -1.5 0.5 -1.5 1 0 0.6 0.7 1 1.5 1 0.8 0 1.5 -0.4 1.5 -1z m25 0 c0 -0.5 -0.7 -1 -1.5 -1 -0.8 0 -1.5 0.5 -1.5 1 0 0.6 0.7 1 1.5 1 0.8 0 1.5 -0.4 1.5 -1z m2 -3 c0 -0.6 -5.8 -1 -15.5 -1 -9.7 0 -15.5 0.4 -15.5 1 0 0.6 5.8 1 15.5 1 9.7 0 15.5 -0.4 15.5 -1z m17 0 c0 -0.6 -3.3 -1 -8 -1 -4.7 0 -8 0.4 -8 1 0 0.6 3.3 1 8 1 4.7 0 8 -0.4 8 -1z m-19 -9 c0 -4 -0.4 -7 -1 -7 -0.5 0 -1 1.3 -1 2.9 0 3.4 -3.8 7.7 -7.5 8.7 -4.2 1 -10.5 -0.2 -13.1 -2.7 -1.3 -1.2 -2.7 -3.7 -3 -5.6 -1.1 -5.7 -2.4 -3.6 -2.4 3.7 l0 7 14 0 14 0 0 -7z m16 0 l0 -5.1 -6.2 0.3 -6.3 0.3 -0.3 4.8 -0.3 4.7 6.5 0 6.6 0 0 -5z m-25.2 0.4 c4.9 -5.6 1.2 -14.4 -6.1 -14.4 -6.7 0 -11.1 6.3 -8.6 12.2 2.5 6 10.3 7.2 14.7 2.2z m-15.8 -9.4 c0 -0.5 -0.9 -1 -2 -1 -1.1 0 -2 0.5 -2 1 0 0.6 0.9 1 2 1 1.1 0 2 -0.4 2 -1z m27 0 c0 -0.5 -1.2 -1 -2.6 -1 -1.4 0 -2.3 0.4 -1.9 1 0.3 0.6 1.5 1 2.6 1 1 0 1.9 -0.4 1.9 -1z m17 0 c0 -0.6 -3.3 -1 -8 -1 -4.7 0 -8 0.4 -8 1 0 0.6 3.3 1 8 1 4.7 0 8 -0.4 8 -1z"/>
  <path d="M11 31.4 c0 -1.7 2.2 -1.4 2.8 0.4 0.2 0.7 -0.3 1.2 -1.2 1.2 -0.9 0 -1.6 -0.7 -1.6 -1.6z"/>
  <path d="M18 31.4 c0 -1.7 2.2 -1.4 2.8 0.4 0.2 0.7 -0.3 1.2 -1.2 1.2 -0.9 0 -1.6 -0.7 -1.6 -1.6z"/>
  <path d="M25 31.5 c0 -0.8 0.7 -1.5 1.5 -1.5 0.8 0 1.5 0.7 1.5 1.5 0 0.8 -0.7 1.5 -1.5 1.5 -0.8 0 -1.5 -0.7 -1.5 -1.5z"/>
  <path d="M38 17 l0 -4 5 0 5 0 0 4 0 4 -5 0 -5 0 0 -4z"/>
  <path d="M14.9 17.6 c-1.3 -0.6 -3 -2.3 -3.8 -3.8 -1.4 -2.5 -1.4 -2.9 0.5 -5.5 5.6 -7.4 16.2 -0.2 10.9 7.4 -1.9 2.6 -4.7 3.4 -7.6 1.9z m2.6 -1.8 c-0.3 -0.7 -1.8 -2.1 -3.5 -3 -3.7 -2.1 -3 0.1 0.8 2.4 1.5 0.9 2.8 1.7 2.9 1.7 0.1 0.1 0 -0.5 -0.2 -1.1z m1.5 -3.3 c-0.7 -0.8 -1.9 -1.5 -2.7 -1.5 -0.7 0 -1.8 -1 -2.3 -2.2 -0.9 -2 -1 -2 -0.7 -0.3 0.1 1.1 1.5 2.6 3 3.3 1.6 0.8 2.7 2.2 2.8 3.5 0.1 1.8 0.2 1.8 0.6 0.4 0.3 -1 -0.1 -2.4 -0.7 -3.2z m4 -1.4 c0 -0.5 -1.3 -1.4 -3 -2 -1.6 -0.5 -3 -1.5 -3 -2.2 0 -0.7 -0.2 -1 -0.5 -0.7 -1.1 1.1 0.8 3.8 2.5 3.8 1.1 0 2.2 0.5 2.5 1 0.8 1.2 1.5 1.3 1.5 0.1z"/>
 </g>
 <g fill="#fff">
  <path d="M11.2 41.2 c-0.1 -3.7 -0.5 -5.1 -1.4 -4.6 -0.7 0.5 -0.8 0.3 -0.3 -0.5 1.4 -2.4 2.6 0.6 2.2 5.5 l-0.3 4.9 -0.2 -5.3z"/>
  <path d="M15.1 42.8 c0 -1 -0.5 -1.8 -1.1 -1.8 -0.5 0 -1 -0.4 -1 -0.8 0 -0.5 2.7 -0.9 6 -1 3.3 0 6 0.2 6 0.4 0 0.3 -0.7 1.2 -1.5 2 -0.8 0.9 -1.5 1.1 -1.5 0.5 0 -1.8 -1.8 -1.2 -2.3 0.7 -0.4 1.6 -0.5 1.6 -0.6 0 0 -1 -0.7 -1.8 -1.5 -1.8 -0.8 0 -1.7 0.8 -1.9 1.8 -0.4 1.6 -0.5 1.6 -0.6 0z"/>
 </g>
 <g fill="#fff">
  <path d="M5 37.5 c0 -0.8 -0.7 -1.5 -1.5 -1.5 -1.7 0 -1.9 -1.9 -0.4 -4 0.9 -1.3 1 -1.3 0.6 0.2 -0.4 1 0.4 2.3 1.9 3.4 2.7 2.1 3.1 3.4 0.9 3.4 -0.8 0 -1.5 -0.7 -1.5 -1.5z"/>
 </g>
</svg>