<svg width="14" height="12" viewBox="0 0 14 17" fill="none" xmlns="http://www.w3.org/2000/svg">
    <path
        d="M5.25381 8.34619C2.95112 8.34619 1.08069 6.47581 1.08069 4.17312C1.08069 1.87043 2.95112 0 5.25381 0C7.5565 0 9.42693 1.87043 9.42693 4.17312C9.41861 6.46749 7.54818 8.34619 5.25381 8.34619ZM5.25381 0.473844C3.21713 0.473844 1.55453 2.13645 1.55453 4.17312C1.55453 6.20979 3.21713 7.87234 5.25381 7.87234C7.29048 7.87234 8.95308 6.20979 8.95308 4.17312C8.94477 2.13645 7.29048 0.473844 5.25381 0.473844Z"
        fill="#000" />
    <path
        d="M10.466 17H0.232787C0.0997798 17 0 16.8919 0 16.7672V13.2342C0 10.2831 2.40245 7.88062 5.35354 7.88062C8.30464 7.88062 10.7071 10.2831 10.7071 13.2342V16.7672C10.7071 16.8919 10.599 17 10.466 17ZM0.465523 16.5261H10.2332V13.2258C10.2332 10.5324 8.03863 8.34614 5.35354 8.34614C2.66015 8.34614 0.473844 10.5324 0.473844 13.2258V16.5261H0.465523Z"
        fill="#000" />
    <path
        d="M9.00291 9.22732C7.99704 9.22732 7.04935 8.83665 6.34275 8.12174C6.25131 8.0303 6.25131 7.88064 6.34275 7.7892C6.43419 7.69776 6.58385 7.69776 6.67529 7.7892C7.29876 8.41267 8.12173 8.75348 9.00291 8.75348C10.8234 8.75348 12.3031 7.2738 12.3031 5.45326C12.3031 3.63273 10.8234 2.15299 9.00291 2.15299C8.83665 2.15299 8.67869 2.16134 8.52074 2.18628C8.38773 2.2029 8.27135 2.11978 8.25472 1.98677C8.23809 1.86208 8.32127 1.73738 8.45427 1.72075C8.63716 1.69581 8.82002 1.6792 9.00291 1.6792C11.0811 1.6792 12.7687 3.3667 12.7687 5.44494C12.7687 7.53981 11.0811 9.22732 9.00291 9.22732Z"
        fill="#000" />
    <path
        d="M13.6915 16.9999H10.4744C10.3414 16.9999 10.2416 16.8918 10.2416 16.7671C10.2416 16.6341 10.3497 16.5344 10.4744 16.5344H13.4587V13.5915C13.4587 11.1891 11.5385 9.23556 9.17759 9.23556C8.93651 9.23556 8.69544 9.2522 8.45436 9.29376C8.32135 9.3187 8.20496 9.22727 8.18002 9.10258C8.15508 8.97788 8.24651 8.85318 8.3712 8.82824C8.63722 8.78667 8.90325 8.76172 9.16926 8.76172C11.7878 8.76172 13.9159 10.9314 13.9159 13.5915V16.7671C13.9242 16.8918 13.8162 16.9999 13.6915 16.9999Z"
        fill="#000" />
</svg>