<svg width="18" height="14" viewBox="0 0 18 14" fill="none" xmlns="http://www.w3.org/2000/svg">
    <path
        d="M17.7525 6.32247H15.6102V2.24282C15.6102 2.10626 15.4993 2.00384 15.3713 2.00384H12.2987L11.1977 0.117652C11.1636 0.0579084 11.1038 0.0152301 11.0441 0.00669523C10.9758 -0.0103745 10.9076 0.00670252 10.8563 0.0408419L7.91181 2.02945C7.87767 2.01238 7.84354 2.00384 7.8094 2.00384H0.239001C0.102443 2.00384 0 2.1148 0 2.24282V13.1589C0 13.2954 0.110978 13.3979 0.239001 13.3979H15.3798C15.5164 13.3979 15.6187 13.2869 15.6187 13.1589V8.92561H17.761C17.8976 8.92561 18 8.81466 18 8.68664V6.56999C17.9915 6.43343 17.8805 6.32247 17.7525 6.32247ZM15.1238 2.48179V3.96687H13.4424L12.5718 2.48179H15.1238ZM10.899 0.587058L11.9147 2.31963C11.9232 2.3623 11.9488 2.39644 11.9744 2.42204L12.8791 3.97539H5.88906L10.899 0.587058ZM15.1238 12.9114H0.469406V2.48179H7.22049L5.02703 3.96687H2.79091C2.65435 3.96687 2.55191 4.07783 2.55191 4.20585C2.55191 4.34241 2.66289 4.44482 2.79091 4.44482H13.3058H15.1238V6.32247H9.08108C8.94452 6.32247 8.84208 6.43342 8.84208 6.56145V8.6781C8.84208 8.81465 8.95306 8.91707 9.08108 8.91707H15.1238V12.9114ZM17.505 8.43912H15.3627H9.32003V6.80896H17.505V8.43912Z"
        fill="#fff" />
</svg>